<svg width="33" height="32" viewBox="0 0 33 32" fill="none" xmlns="http://www.w3.org/2000/svg">
<rect width="33" height="32" rx="12.8" fill="url(#paint0_linear_2066_6304)"/>
<path d="M23.0998 15.4861C23.0998 16.4414 22.3336 17.2083 21.3976 17.2083C20.4615 17.2083 19.6953 16.4414 19.6953 15.4861C19.6953 14.5308 20.4619 13.7639 21.3976 13.7639C22.3332 13.7639 23.0998 14.5308 23.0998 15.4861Z" stroke="url(#paint1_linear_2066_6304)"/>
<path d="M21.2848 13.2978C20.7827 13.3714 20.4476 13.6236 20.3535 13.7025C20.1276 13.7611 19.8292 13.9394 19.8022 13.956C19.785 13.9744 19.7678 13.9933 19.751 14.0121C19.7435 14.0208 19.7359 14.0296 19.7284 14.0384C19.7174 14.0511 19.7063 14.0642 19.6953 14.0773C19.503 14.3292 19.4296 14.623 19.4084 14.7268L19.2484 15.0023C19.2431 15.0259 19.2382 15.0496 19.2338 15.0737C19.232 15.0824 19.2307 15.0912 19.2289 15.1004C19.2254 15.121 19.2218 15.1411 19.2188 15.1617C19.221 15.16 19.2232 15.1573 19.2245 15.1547L19.434 14.7934C19.5012 14.8289 19.6533 14.8784 19.7297 14.9024C19.739 14.9892 19.8159 15.7017 19.9357 15.8616C19.865 15.95 19.7514 16.2934 19.7404 16.4629C19.5242 16.4703 19.3611 16.321 19.3593 16.3197C19.3576 16.3183 19.3558 16.3175 19.354 16.3162C19.3677 16.3503 19.3823 16.384 19.3973 16.4173C19.4685 16.4629 19.5839 16.5189 19.7231 16.5189C19.7302 16.5189 19.7377 16.5189 19.7452 16.5185C19.8014 16.6884 20.2659 17.0423 20.3747 17.1233C20.3963 17.2148 20.4543 17.383 20.6094 17.5626C20.6465 17.577 20.6841 17.5906 20.7226 17.6029C20.7226 17.6029 20.7208 17.5998 20.7195 17.5985C20.5365 17.4172 20.464 17.2363 20.4357 17.1338C20.6868 17.0869 20.91 16.9424 20.9931 16.8837C21.0979 16.9227 21.4789 17.0524 21.8887 17.0524C21.9187 17.0524 21.9488 17.0515 21.9793 17.0497C22.0284 17.2302 22.1464 17.3576 22.191 17.401C22.1437 17.4526 21.9996 17.584 21.6783 17.6852C21.6738 17.6865 21.6703 17.6891 21.6672 17.6922C21.707 17.6874 21.7459 17.6813 21.7848 17.6742C21.7954 17.6725 21.806 17.6707 21.8166 17.6685C21.8312 17.6659 21.8458 17.6629 21.8604 17.6598C21.8887 17.6537 21.9165 17.6475 21.9444 17.6401C22.1751 17.5275 22.2525 17.4154 22.2565 17.4097C22.2573 17.4088 22.2573 17.4075 22.2578 17.4062C23.1339 17.2069 23.2011 16.6056 23.2046 16.4502C23.2754 16.3696 23.4416 16.1528 23.5804 15.7665C23.5848 15.7306 23.5883 15.6943 23.5914 15.6575C23.5923 15.6456 23.5932 15.6334 23.5941 15.6216C23.5949 15.608 23.5954 15.5944 23.5963 15.5808C23.5976 15.5497 23.5985 15.5186 23.5985 15.4871C23.5985 15.453 23.5976 15.4192 23.5958 15.3855C23.5958 15.3767 23.595 15.3676 23.5945 15.3588C23.5927 15.329 23.5905 15.2992 23.5879 15.2699C23.5879 15.2659 23.5874 15.2616 23.587 15.2576C23.5835 15.2252 23.5795 15.1928 23.5746 15.1608C23.5733 15.1516 23.572 15.1424 23.5702 15.1332C23.5662 15.107 23.5614 15.0811 23.5565 15.0553C23.5552 15.0483 23.5538 15.0413 23.5525 15.0338C23.5463 15.0032 23.5393 14.973 23.5317 14.9427C23.5295 14.9331 23.5269 14.9235 23.5242 14.9138C23.518 14.8911 23.5118 14.8683 23.5052 14.8459C23.5026 14.8368 23.4999 14.8271 23.4968 14.8179C23.488 14.7895 23.4783 14.7614 23.4685 14.7334C23.465 14.7229 23.461 14.7128 23.457 14.7027C23.4495 14.683 23.442 14.6629 23.434 14.6436C23.4296 14.6327 23.4252 14.6217 23.4208 14.6112C23.4097 14.5849 23.3978 14.5587 23.3859 14.5333C23.381 14.5227 23.3757 14.5122 23.3704 14.5022C23.3616 14.4842 23.3527 14.4667 23.3434 14.4492C23.3377 14.4378 23.3315 14.4264 23.3253 14.415C23.312 14.3905 23.2983 14.3664 23.2838 14.3423C23.3054 14.4246 23.3775 14.7194 23.3231 14.8144C23.1016 14.7553 22.8161 14.7518 22.7179 14.7522C22.6618 14.5963 22.2087 14.2241 22.0708 14.1452C22.0708 14.0949 22.0602 13.6661 22.0575 13.5487C22.2061 13.5273 22.5588 13.6022 22.5588 13.6022C22.5588 13.6017 22.5592 13.6009 22.5597 13.6004C22.2224 13.388 21.8241 13.2654 21.3971 13.2654C21.387 13.2654 21.3768 13.2658 21.3666 13.2663L21.284 13.2991L21.2848 13.2978ZM20.0016 15.8537C19.9998 15.848 19.9967 15.8423 19.9914 15.8383C19.9074 15.7775 19.8217 15.2322 19.7872 14.8998C19.9954 14.5981 20.2929 14.3397 20.3773 14.2687C20.4092 14.2749 21.0333 14.3988 21.2543 14.5105C21.2685 14.6743 21.3715 15.1989 21.4095 15.3347C21.3211 15.4214 20.8441 15.8905 20.7204 16.0534C20.5953 16.0035 20.1462 15.89 20.0016 15.8537ZM22.7157 14.807C22.8099 14.8065 23.1096 14.81 23.3266 14.8718C23.3907 14.9572 23.5459 15.2064 23.5636 15.6408C23.5636 15.6408 23.5644 15.6408 23.5653 15.6408C23.4292 16.0665 23.2497 16.3109 23.1719 16.4033C23.0641 16.3875 22.7308 16.3779 22.6256 16.3753C22.6039 16.1502 22.4342 15.6908 22.3643 15.5086C22.5142 15.3772 22.6759 14.9235 22.7157 14.807ZM22.3121 15.5296C22.386 15.7223 22.5716 16.2272 22.5716 16.4186C22.5716 16.4204 22.5725 16.4221 22.573 16.4243C22.4779 16.5772 22.0677 16.9144 21.9855 16.9932C21.5589 17.016 21.1416 16.8772 21.0218 16.8334C20.9847 16.7164 20.8194 16.2014 20.7637 16.0893C20.8742 15.9408 21.3441 15.4779 21.444 15.3798C21.5757 15.4328 22.1963 15.5147 22.3121 15.5296ZM22.016 14.1295C21.8573 14.1413 21.3512 14.4106 21.2685 14.4549C21.0422 14.3471 20.4985 14.2359 20.4012 14.2166V13.7366C20.5055 13.6525 20.8348 13.4165 21.3074 13.3508C21.6097 13.3779 21.8931 13.4835 22.0027 13.5282C22.0045 13.5952 22.0147 14.0314 22.0164 14.129L22.016 14.1295Z" fill="url(#paint2_linear_2066_6304)"/>
<path d="M21.3929 21.1103C23.8756 21.1103 25.979 19.5112 26.7163 17.2971C24.8588 19.8557 19.3938 19.3777 18.9396 16.2198C18.8818 16.0077 18.8501 15.7855 18.8501 15.5566C18.8501 14.1651 19.9884 13.0373 21.3929 13.0373C22.5652 13.0373 23.5517 13.824 23.8451 14.8923C23.3909 11.7344 17.9259 11.2564 16.0683 13.815C15.886 14.3626 15.7852 14.9484 15.7852 15.5566C15.7852 18.6247 18.2951 21.1114 21.3917 21.1114L21.3929 21.1103Z" fill="url(#paint3_linear_2066_6304)"/>
<path d="M23.8459 14.891C23.9037 15.1031 23.9354 15.3253 23.9354 15.5553C23.9354 16.9468 22.7971 18.0746 21.3926 18.0746C20.2203 18.0746 19.2338 17.288 18.9404 16.2197C19.3946 19.3775 24.8596 19.8555 26.7172 17.297C26.8995 16.7493 27.0003 16.1635 27.0003 15.5553C27.0003 12.4873 24.4904 10.0005 21.3937 10.0005C18.911 10.0005 16.8077 11.5996 16.0703 13.8137C17.9278 11.2551 23.3929 11.7331 23.8471 14.891H23.8459Z" fill="url(#paint4_linear_2066_6304)"/>
<path d="M12.5502 10.0139C13.5213 10.0942 14.2997 9.79328 15.0181 10.5063C15.5425 11.019 15.5087 11.6669 15.5036 11.6669V13.9387H12.6268V12.8647C10.9813 12.8597 11.6085 12.8591 9.89093 12.8647V13.8989H7.01218C7.01218 11.6056 6.88011 11.1195 7.50473 10.5057C8.08724 9.93171 8.67359 10.0607 8.67359 10.0196C9.11829 10.0196 9.06278 10.0272 9.05385 9.99998C11.4643 10.0082 10.677 10.0082 12.5502 9.99998V10.0133V10.0139Z" fill="url(#paint5_linear_2066_6304)"/>
<path d="M12.4414 15.0297L9.65899 17.861C8.63178 17.861 8.09712 17.9577 7.50567 17.3711C6.91231 16.7756 7.01312 16.4729 7.01312 14.1106H9.89187V15.0101L12.4408 15.0297H12.4414Z" fill="url(#paint6_linear_2066_6304)"/>
<path d="M14.9452 17.0008L10.798 21.1108L7.91928 21.0976C7.97223 20.2809 8.26636 19.595 8.80932 19.0419L12.6132 15.2719L12.6196 14.1544H15.4919C15.4919 16.1854 15.58 16.3775 14.9445 17.0008H14.9452Z" fill="url(#paint7_linear_2066_6304)"/>
<mask id="mask0_2066_6304" style="mask-type:alpha" maskUnits="userSpaceOnUse" x="15" y="10" width="12" height="12">
<ellipse cx="21.371" cy="15.5557" rx="5.6073" ry="5.55543" fill="#D9D9D9"/>
</mask>
<g mask="url(#mask0_2066_6304)">
<path d="M16.5948 13.475H15.8346C15.8159 13.475 15.8008 13.46 15.8008 13.4414C15.8008 13.4229 15.8159 13.4079 15.8346 13.4079H16.5912L17.3198 13.2517C17.3198 13.2517 17.3216 13.2513 17.3225 13.2513L18.0427 13.1556L19.0397 13.0732C19.0415 13.0732 19.0433 13.0732 19.0451 13.0732L20.1399 13.1553L21.4532 13.1824C21.472 13.1828 21.4869 13.1981 21.4864 13.2166C21.486 13.2352 21.4708 13.2497 21.4519 13.2495L20.1367 13.2224L19.0429 13.1403L18.0502 13.2222L17.3329 13.3175L16.6018 13.4743C16.5996 13.4748 16.5971 13.475 16.5946 13.475H16.5948Z" fill="#DAE0E6"/>
<path d="M15.8227 13.45C15.8128 13.45 15.8047 13.4419 15.8047 13.4321C15.8047 13.4223 15.8128 13.4142 15.8227 13.4142H16.5809L17.3113 13.2576L18.0331 13.1617L19.0294 13.0793H19.0323L20.1271 13.1614L21.4411 13.1885C21.4458 13.1885 21.4503 13.1905 21.4537 13.1941C21.4571 13.1975 21.4589 13.2021 21.4587 13.2068C21.4587 13.2167 21.4506 13.2243 21.4404 13.2243L20.1251 13.1972L19.0307 13.1151L18.0369 13.1972L17.3187 13.2927L16.5868 13.4495C16.5854 13.4498 16.5843 13.45 16.5829 13.45H15.8227Z" fill="#EDF0F2"/>
<path d="M19.223 12.3572C19.2209 12.3572 19.2189 12.3572 19.2169 12.3568L18.0413 12.1443L17.1587 12.0197L15.9874 11.8313C15.9689 11.8284 15.9565 11.8112 15.9594 11.7929C15.9623 11.7745 15.98 11.762 15.9982 11.7651L17.1689 11.9535L18.0521 12.0783L19.229 12.291C19.2473 12.2944 19.2598 12.3118 19.2564 12.3299C19.2534 12.346 19.2392 12.3574 19.2232 12.3574L19.223 12.3572Z" fill="#DAE0E6"/>
<path d="M19.2108 12.3322C19.2108 12.3322 19.2086 12.3322 19.2077 12.332L18.0321 12.1195L17.1488 11.9947L15.978 11.8063C15.9732 11.8056 15.969 11.803 15.9662 11.7992C15.9635 11.7954 15.9624 11.7907 15.9631 11.7857C15.9644 11.7772 15.9721 11.7708 15.9807 11.7708C15.9816 11.7708 15.9827 11.7708 15.9836 11.771L17.1543 11.9593L18.0379 12.0841L19.2142 12.2966C19.2189 12.2975 19.223 12.3002 19.2257 12.304C19.2284 12.3078 19.2296 12.3127 19.2287 12.3174C19.2271 12.3259 19.2196 12.3322 19.2108 12.3322Z" fill="#EDF0F2"/>
<path d="M16.2019 15.0291C16.1849 15.0291 16.1703 15.0166 16.1682 14.9993C16.166 14.981 16.1793 14.9642 16.198 14.9622L16.9833 14.8716C16.9833 14.8716 16.9851 14.8716 16.986 14.8716L17.8085 14.8441L18.6874 14.7289L19.7569 14.5996C19.7754 14.5974 19.7923 14.6104 19.7946 14.6289C19.7968 14.6473 19.7837 14.664 19.765 14.6663L18.696 14.7956L17.8159 14.911C17.8159 14.911 17.8136 14.9112 17.8125 14.9112L16.9898 14.9387L16.2059 15.0291C16.2046 15.0291 16.2032 15.0293 16.2019 15.0293V15.0291Z" fill="#DAE0E6"/>
<path d="M16.1898 15.0041C16.1808 15.0041 16.1729 14.9974 16.172 14.9882C16.1715 14.9835 16.1726 14.9788 16.1758 14.975C16.1787 14.9712 16.183 14.969 16.188 14.9683L16.9732 14.8777L17.7971 14.8502L18.6776 14.735L19.7468 14.6057C19.7468 14.6057 19.7484 14.6057 19.7491 14.6057C19.7581 14.6057 19.7658 14.6124 19.7669 14.6214C19.7676 14.6261 19.7663 14.6308 19.7633 14.6346C19.7604 14.6384 19.7561 14.6406 19.7514 14.6413L18.6823 14.7706L17.802 14.886L16.9775 14.9137L16.1925 15.0043H16.1905L16.1898 15.0041Z" fill="#EDF0F2"/>
<path d="M16.2976 16.6802C16.28 16.6802 16.2651 16.6665 16.2637 16.6488C16.2626 16.6303 16.2766 16.6144 16.2953 16.6133L17.0704 16.5629L17.9024 16.4771C17.9035 16.4771 17.9046 16.4771 17.906 16.4771H19.632C19.6508 16.4771 19.6659 16.492 19.6659 16.5106C19.6659 16.5292 19.6508 16.5442 19.632 16.5442H17.9076L17.0761 16.6301L16.2996 16.6804C16.2996 16.6804 16.2981 16.6804 16.2974 16.6804L16.2976 16.6802Z" fill="#DAE0E6"/>
<path d="M16.2876 16.6549C16.2782 16.6549 16.2703 16.6475 16.2696 16.6381C16.2689 16.6283 16.2766 16.6198 16.2865 16.6191L17.0616 16.5688L17.894 16.4829H19.6221C19.632 16.4829 19.6401 16.4907 19.6401 16.5008C19.6401 16.5109 19.632 16.5187 19.6221 16.5187H17.8978L17.0647 16.6046L16.2876 16.6549Z" fill="#EDF0F2"/>
<path d="M21.2145 18.956C21.2034 18.956 21.1924 18.9506 21.186 18.9405C21.0668 18.7564 21.0569 18.5925 21.0434 18.3654L21.042 18.3446H19.4047C19.4031 18.3446 19.4018 18.3446 19.4002 18.3444L18.6901 18.2516L18.0266 18.2628L17.3373 18.2292L16.7632 18.2516C16.7632 18.2516 16.7614 18.2516 16.7605 18.2516L15.9815 18.218C15.9628 18.2171 15.9484 18.2015 15.9493 18.1831C15.9502 18.1646 15.966 18.1505 15.9845 18.1511L16.762 18.1847L17.3364 18.1623C17.3364 18.1623 17.3384 18.1623 17.3393 18.1623L18.0279 18.1959L18.6917 18.1847C18.6933 18.1847 18.6951 18.1847 18.6967 18.1849L19.407 18.2778H21.0741C21.0919 18.2778 21.1068 18.2916 21.1079 18.3093L21.1111 18.3616C21.1246 18.5867 21.1334 18.7352 21.2432 18.9045C21.2533 18.9202 21.2488 18.9408 21.233 18.9508C21.2274 18.9544 21.221 18.9562 21.2147 18.9562L21.2145 18.956Z" fill="#DAE0E6"/>
<path d="M21.2028 18.9307C21.1967 18.9307 21.1908 18.9276 21.1877 18.9224C21.0707 18.7417 21.061 18.5795 21.0475 18.3547L21.0452 18.3191H19.393C19.393 18.3191 19.3914 18.3191 19.3908 18.3191L18.6796 18.2261L18.0149 18.2373L17.3265 18.2037L16.7508 18.2261L15.9703 18.1925C15.9604 18.1921 15.9527 18.1838 15.9531 18.1737C15.9536 18.1643 15.9617 18.1567 15.9714 18.1567L16.7494 18.1903L17.3252 18.1679L18.0153 18.2015L18.6802 18.1903H18.683L19.3932 18.2833H21.0624C21.0719 18.2833 21.0798 18.2909 21.0804 18.3003L21.0836 18.3527C21.0971 18.5802 21.1062 18.7305 21.2182 18.9032C21.2236 18.9114 21.2211 18.9226 21.2127 18.928C21.2098 18.9298 21.2064 18.9309 21.203 18.9309L21.2028 18.9307Z" fill="#EDF0F2"/>
<path d="M19.7598 21.081C19.7476 21.081 19.7358 21.0745 19.7298 21.0631L19.2924 20.2361L19.0107 20.0813L18.4986 20.0339L18.0252 19.9847C18.0252 19.9847 18.0236 19.9847 18.0227 19.9842L17.3334 19.8619L16.874 19.8731C16.8724 19.8731 16.8708 19.8731 16.8692 19.8728L16.2935 19.8057C16.275 19.8035 16.2617 19.7869 16.2639 19.7686C16.2662 19.7503 16.2829 19.7368 16.3014 19.7393L16.8746 19.8062L17.335 19.795C17.3372 19.795 17.3395 19.795 17.3418 19.7954L18.0331 19.9183L18.5049 19.9672L19.0238 20.0153C19.0285 20.0158 19.033 20.0171 19.0371 20.0194L19.334 20.1824C19.3398 20.1856 19.3446 20.1905 19.3475 20.1963L19.7896 21.0322C19.7982 21.0485 19.7918 21.0689 19.7754 21.0776C19.7704 21.0803 19.765 21.0814 19.7598 21.0814V21.081Z" fill="#DAE0E6"/>
<path d="M19.7499 21.0559C19.7431 21.0559 19.737 21.0523 19.7339 21.0463L19.2943 20.2151L19.0055 20.0565L18.4901 20.0086L18.0169 19.9594L17.3249 19.8366L16.8638 19.8478C16.8638 19.8478 16.8623 19.8478 16.8611 19.8478L16.2854 19.7807C16.2807 19.7802 16.2764 19.7778 16.2735 19.774C16.2705 19.7701 16.2692 19.7655 16.2696 19.7608C16.2707 19.7518 16.2782 19.7449 16.2872 19.7449H16.2897L16.8629 19.812L17.3256 19.801C17.3256 19.801 17.3278 19.801 17.3292 19.8012L18.0205 19.924L18.4935 19.9733L19.0125 20.0213C19.015 20.0213 19.0175 20.0222 19.0197 20.0236L19.3164 20.1864C19.3196 20.1882 19.3221 20.1907 19.3236 20.1938L19.7657 21.0297C19.768 21.034 19.7684 21.0389 19.7671 21.0434C19.7657 21.0478 19.7625 21.0516 19.7582 21.0539C19.7558 21.0552 19.7528 21.0559 19.7499 21.0559Z" fill="#EDF0F2"/>
<path style="mix-blend-mode:overlay" opacity="0.5" d="M16.5948 13.4749H15.8346C15.8159 13.4749 15.8008 13.46 15.8008 13.4414C15.8008 13.4228 15.8159 13.4078 15.8346 13.4078H16.5912L17.3198 13.2517C17.3198 13.2517 17.3216 13.2513 17.3225 13.2513L18.0427 13.1555L19.0397 13.0732C19.0415 13.0732 19.0433 13.0732 19.0451 13.0732L20.1399 13.1553L21.4532 13.1824C21.472 13.1828 21.4869 13.198 21.4864 13.2166C21.486 13.2352 21.4708 13.2497 21.4519 13.2495L20.1367 13.2224L19.0429 13.1403L18.0502 13.2222L17.3329 13.3175L16.6018 13.4743C16.5996 13.4747 16.5971 13.4749 16.5946 13.4749H16.5948ZM19.2562 12.3297C19.2596 12.3116 19.2474 12.2939 19.2289 12.2908L18.052 12.078L17.1687 11.9532L15.9981 11.7649C15.9798 11.7618 15.9622 11.7743 15.9593 11.7926C15.9563 11.811 15.9688 11.8282 15.9873 11.8311L17.1586 12.0194L18.0411 12.144L19.2167 12.3565C19.2187 12.357 19.2208 12.357 19.2228 12.357C19.2388 12.357 19.2531 12.3456 19.256 12.3295L19.2562 12.3297ZM16.2049 15.0287L16.9888 14.9383L17.8115 14.9108C17.8115 14.9108 17.8138 14.9108 17.8149 14.9106L18.695 14.7951L19.764 14.6658C19.7825 14.6636 19.7958 14.6468 19.7936 14.6285C19.7913 14.6101 19.7744 14.5969 19.7559 14.5992L18.6864 14.7285L17.8074 14.8437L16.985 14.8712C16.985 14.8712 16.9832 14.8712 16.9822 14.8712L16.197 14.9618C16.1785 14.964 16.1652 14.9806 16.1672 14.9989C16.1692 15.0159 16.1839 15.0287 16.2008 15.0287C16.2022 15.0287 16.2036 15.0287 16.2049 15.0284V15.0287ZM16.2997 16.6799L17.0762 16.6296L17.9077 16.5437H19.6319C19.6507 16.5437 19.6658 16.5287 19.6658 16.5101C19.6658 16.4916 19.6507 16.4766 19.6319 16.4766H17.9059C17.9048 16.4766 17.9036 16.4766 17.9023 16.4766L17.0703 16.5625L16.2952 16.6128C16.2765 16.6139 16.2625 16.63 16.2636 16.6484C16.2647 16.666 16.2796 16.6797 16.2975 16.6797C16.2982 16.6797 16.2991 16.6797 16.2997 16.6797V16.6799ZM21.2313 18.9507C21.2471 18.9407 21.2516 18.9199 21.2414 18.9044C21.1317 18.7351 21.1229 18.5866 21.1094 18.3615L21.1062 18.3092C21.1051 18.2915 21.0904 18.2777 21.0723 18.2777H19.4055L18.6952 18.1848C18.6936 18.1848 18.6918 18.1846 18.6902 18.1846L18.0264 18.1958L17.3378 18.1622C17.3378 18.1622 17.3358 18.1622 17.3349 18.1622L16.7605 18.1846L15.983 18.1511C15.9645 18.1504 15.9484 18.1647 15.9478 18.1831C15.9469 18.2016 15.9615 18.2173 15.98 18.2179L16.759 18.2515C16.759 18.2515 16.7608 18.2515 16.7617 18.2515L17.3358 18.2291L18.0251 18.2627L18.6886 18.2515L19.3987 18.3443C19.4 18.3443 19.4016 18.3446 19.4032 18.3446H21.0407L21.0421 18.3654C21.0556 18.5924 21.0656 18.7566 21.1848 18.9404C21.1913 18.9505 21.2022 18.9559 21.2132 18.9559C21.2195 18.9559 21.2259 18.9541 21.2315 18.9505L21.2313 18.9507ZM19.7755 21.0773C19.792 21.0688 19.7985 21.0484 19.7897 21.0319L19.3477 20.196C19.3445 20.1902 19.3398 20.1855 19.3341 20.1821L19.0372 20.019C19.0332 20.0168 19.0286 20.0155 19.0239 20.015L18.5051 19.9669L18.0332 19.9179L17.3419 19.7951C17.3396 19.7947 17.3374 19.7947 17.3351 19.7947L16.8748 19.8059L16.3015 19.739C16.283 19.7365 16.2661 19.75 16.2641 19.7683C16.2618 19.7866 16.2751 19.8034 16.2936 19.8054L16.8694 19.8725C16.8709 19.8725 16.8725 19.8725 16.8741 19.8728L17.3335 19.8616L18.0228 19.9839C18.0228 19.9839 18.0244 19.9842 18.0253 19.9844L18.4988 20.0336L19.0108 20.081L19.2926 20.2358L19.7299 21.0628C19.736 21.0742 19.7477 21.0807 19.7599 21.0807C19.7651 21.0807 19.7705 21.0795 19.7755 21.0769V21.0773Z" fill="url(#paint8_linear_2066_6304)"/>
<path d="M16.3883 19.8617C16.3858 19.8617 16.3833 19.8615 16.3806 19.8608C16.3623 19.8568 16.351 19.8387 16.3551 19.8205L16.7269 18.2134C16.7294 18.0756 16.7161 17.9742 16.703 17.8765C16.666 17.5991 16.6368 17.3801 17.0407 16.5847C17.1943 15.8356 17.1198 15.3788 16.959 14.9277C16.502 14.6762 16.2663 14.4004 15.8757 13.8773C15.8647 13.8623 15.8678 13.8415 15.8827 13.8303C15.8976 13.8193 15.9189 13.8224 15.9302 13.8372C16.3268 14.3687 16.5483 14.6275 17.0028 14.8751C17.01 14.8791 17.0157 14.8856 17.0184 14.8932C17.1864 15.3598 17.2654 15.8289 17.1062 16.6026C17.1055 16.6055 17.1046 16.6084 17.1033 16.6111C16.7066 17.3911 16.7332 17.5911 16.7703 17.868C16.7831 17.9644 16.7976 18.0738 16.7946 18.2185C16.7946 18.2207 16.7944 18.2232 16.7937 18.2252L16.4212 19.8355C16.4176 19.851 16.4036 19.8617 16.3883 19.8617Z" fill="#DAE0E6"/>
<path d="M16.3764 19.8367C16.3751 19.8367 16.3737 19.8367 16.3724 19.8362C16.3676 19.8351 16.3636 19.8324 16.3611 19.8282C16.3586 19.8241 16.3577 19.8194 16.3588 19.8147L16.7309 18.206V18.2044C16.7336 18.0655 16.7201 17.9638 16.707 17.8653C16.6704 17.5904 16.6413 17.3735 17.0431 16.5825L17.044 16.5807L17.0445 16.5787C17.1994 15.8231 17.1235 15.3666 16.9621 14.9134L16.9601 14.9078L16.9549 14.9049C16.5004 14.6548 16.2669 14.3815 15.8766 13.8587C15.8707 13.8509 15.8723 13.8395 15.8804 13.8337C15.8836 13.8314 15.8872 13.8301 15.891 13.8301C15.8969 13.8301 15.9021 13.8328 15.9057 13.8372C16.3037 14.3705 16.5259 14.6304 16.9833 14.8796C16.9871 14.8816 16.9901 14.8852 16.9917 14.8892C17.1587 15.3534 17.2373 15.8202 17.0788 16.5901C17.0786 16.5917 17.0779 16.5932 17.0772 16.5946C16.6783 17.379 16.7054 17.581 16.7426 17.8604C16.7555 17.9564 16.77 18.0651 16.767 18.2085C16.767 18.2098 16.767 18.2109 16.7666 18.212L16.3938 19.8228C16.392 19.8309 16.3846 19.8367 16.3762 19.8367H16.3764Z" fill="#EDF0F2"/>
<path d="M18.8036 21.1928C18.7981 21.1928 18.7927 21.1914 18.7875 21.1887C18.7711 21.18 18.765 21.1597 18.7738 21.1433L19.6656 19.4993C19.6674 19.4957 19.6701 19.4925 19.673 19.4899L21.0491 18.2867L22.4649 16.824L23.2325 14.7323L21.4347 13.245L19.2102 12.3548L16.283 10.9782C16.2661 10.9704 16.2589 10.9503 16.267 10.9335C16.2749 10.9167 16.2952 10.9096 16.3122 10.9176L19.2375 12.2933L21.4652 13.1847C21.4684 13.186 21.4715 13.1878 21.4742 13.19L23.2944 14.6959C23.3055 14.7048 23.3095 14.7198 23.3046 14.733L22.5263 16.8535C22.5247 16.858 22.5223 16.862 22.5189 16.8654L21.0972 18.3343C21.0972 18.3343 21.0958 18.3357 21.0952 18.3363L19.7225 19.5366L18.8336 21.1753C18.8275 21.1865 18.8158 21.193 18.8038 21.193L18.8036 21.1928Z" fill="#DAE0E6"/>
<path d="M18.7916 21.1679C18.7887 21.1679 18.7858 21.1672 18.783 21.1656C18.7742 21.1609 18.7711 21.1502 18.7756 21.1415L19.6674 19.4974C19.6683 19.4956 19.6696 19.4938 19.6715 19.4925L21.0475 18.2893L22.4665 16.8232L23.2391 14.7182L21.4309 13.2222L19.2041 12.331L16.2779 10.9549C16.2736 10.9529 16.2702 10.9493 16.2686 10.9448C16.267 10.9404 16.2673 10.9354 16.2693 10.9312C16.2722 10.9249 16.2788 10.9209 16.2855 10.9209C16.2883 10.9209 16.2907 10.9216 16.2932 10.9227L19.2188 12.2983L21.4474 13.1902C21.4492 13.1908 21.4508 13.1917 21.4521 13.1931L23.2723 14.6989C23.2782 14.7038 23.2802 14.7117 23.2777 14.7188L22.4995 16.8394C22.4986 16.8416 22.4972 16.8438 22.4954 16.8456L21.0737 18.3145L19.6979 19.5175L18.8077 21.1587C18.8045 21.1645 18.7984 21.1681 18.7916 21.1681V21.1679Z" fill="#EDF0F2"/>
<path d="M18.5317 21.2599C18.5274 21.2599 18.5231 21.259 18.5188 21.2574C18.5014 21.2505 18.4933 21.2308 18.5003 21.2136L19.0103 19.9833C19.0112 19.9813 19.0121 19.9793 19.0135 19.9775L20.1403 18.2925C20.1414 18.2907 20.1428 18.2889 20.1443 18.2873C20.6144 17.8154 21.117 17.2841 21.6401 16.4415L21.5888 14.6075L20.1823 13.2502L18.0307 12.141L16.1827 11.067C16.1667 11.0577 16.1613 11.0371 16.1705 11.0212C16.18 11.0053 16.2008 10.9999 16.2168 11.0091L18.0634 12.0823L20.218 13.1932C20.2209 13.1947 20.2236 13.1965 20.2259 13.199L21.646 14.5693C21.6523 14.5753 21.6559 14.5836 21.6561 14.5923L21.7078 16.4498C21.7078 16.4563 21.7062 16.4628 21.7029 16.4683C21.175 17.3206 20.6684 17.8568 20.1947 18.3323L19.0715 20.0119L18.5628 21.2391C18.5574 21.2521 18.5448 21.2599 18.5314 21.2599H18.5317Z" fill="#DAE0E6"/>
<path d="M18.5216 21.2349C18.5194 21.2349 18.5169 21.2344 18.5149 21.2336C18.5104 21.2318 18.507 21.2284 18.5052 21.2239C18.5034 21.2195 18.5034 21.2145 18.5052 21.2103L19.0152 19.98C19.0152 19.98 19.0161 19.978 19.0168 19.9771L20.1438 18.2919C20.1438 18.2919 20.1452 18.2899 20.1461 18.2892C20.6166 17.8168 21.1198 17.2851 21.6441 16.4407L21.6466 16.4366L21.5951 14.5917L20.1822 13.2283L18.0281 12.1178L16.1808 11.0443C16.1723 11.0394 16.1693 11.0284 16.1743 11.0197C16.1775 11.0143 16.1835 11.0107 16.1899 11.0107C16.193 11.0107 16.1962 11.0116 16.1989 11.0132L18.0455 12.0864L20.2007 13.1977C20.2023 13.1986 20.2036 13.1995 20.205 13.2008L21.6251 14.5711C21.6285 14.5745 21.6305 14.5787 21.6305 14.5834L21.6822 16.4411C21.6822 16.4447 21.6813 16.4481 21.6795 16.451C21.1519 17.3028 20.6462 17.8376 20.1736 18.3122L20.1725 18.3134L19.0475 19.9955L18.5381 21.2242C18.5354 21.2309 18.5289 21.2353 18.5214 21.2353L18.5216 21.2349Z" fill="#EDF0F2"/>
<path d="M18.1385 21.2598C18.1353 21.2598 18.1321 21.2593 18.129 21.2584C18.1109 21.2533 18.1008 21.2347 18.106 21.2168L18.4983 19.8859C18.499 19.8837 18.4999 19.8814 18.5011 19.8792L19.3716 18.2949C19.3716 18.2949 19.3728 18.2928 19.3734 18.2917L20.6691 16.4412L20.5298 14.577C19.9146 14.0632 19.2271 13.4062 19.0174 13.132L17.0534 11.9608C17.052 11.9599 17.0505 11.959 17.0493 11.9579L16.274 11.3204C16.2596 11.3085 16.2576 11.2873 16.2695 11.2732C16.2815 11.2589 16.3027 11.2569 16.3172 11.2687L17.0904 11.9046L19.0583 13.0776C19.0621 13.0799 19.0653 13.0828 19.068 13.0864C19.2714 13.3557 19.9661 14.0189 20.5847 14.5347C20.5917 14.5405 20.596 14.5488 20.5967 14.558L20.7378 16.4481C20.7385 16.4557 20.7362 16.4633 20.7319 16.4698L19.4303 18.3286L18.5622 19.9083L18.171 21.2359C18.1667 21.2504 18.1531 21.26 18.1385 21.26V21.2598Z" fill="#DAE0E6"/>
<path d="M18.1267 21.2347C18.1249 21.2347 18.1233 21.2345 18.1217 21.234C18.1169 21.2327 18.1131 21.2295 18.1109 21.2255C18.1086 21.2213 18.1079 21.2166 18.1093 21.2119L18.5017 19.881C18.5021 19.8798 18.5026 19.8785 18.503 19.8774L19.3736 18.293L20.6736 16.4362L20.5334 14.56L20.5282 14.5557C19.9177 14.0457 19.2262 13.385 19.0182 13.1132L19.0164 13.1107L17.0495 11.9382C17.0495 11.9382 17.0479 11.9373 17.0472 11.9366L16.2722 11.2991C16.2645 11.2928 16.2634 11.2814 16.2699 11.2738C16.2733 11.2698 16.2785 11.2673 16.2839 11.2673C16.2868 11.2673 16.2914 11.268 16.2954 11.2714L17.0694 11.9082L19.0381 13.0819C19.0401 13.083 19.0417 13.0845 19.0433 13.0866C19.2474 13.3565 19.943 14.0211 20.5625 14.5376C20.5661 14.5407 20.5686 14.5452 20.5688 14.5499L20.7099 16.44C20.7102 16.4441 20.709 16.4483 20.7068 16.4514L19.4052 18.3102L18.5355 19.8928L18.1438 21.2219C18.1416 21.2295 18.1346 21.2349 18.1264 21.2349L18.1267 21.2347Z" fill="#EDF0F2"/>
<path d="M17.6277 21.0811C17.6239 21.0811 17.62 21.0804 17.6162 21.0791C17.5986 21.0728 17.5895 21.0536 17.5959 21.0361L17.995 19.9401L18.6572 18.2061C18.6577 18.2047 18.6584 18.2032 18.6593 18.2018L19.5969 16.5005L19.7229 14.6502C19.2115 14.326 18.6044 13.7691 18.0235 13.2143L16.2753 11.9257C16.2604 11.9147 16.2573 11.8937 16.2683 11.8787C16.2796 11.864 16.3006 11.8608 16.3157 11.8718L18.0655 13.1618C18.0666 13.1627 18.0677 13.1636 18.0689 13.1645C18.6541 13.7232 19.2657 14.2844 19.7759 14.6041C19.7865 14.6106 19.7924 14.6224 19.7917 14.6347L19.6639 16.5121C19.6637 16.517 19.6621 16.5217 19.6599 16.526L18.7198 18.2318L18.0585 19.9631L17.6595 21.0587C17.6546 21.0724 17.6415 21.0809 17.6277 21.0809V21.0811Z" fill="#DAE0E6"/>
<path d="M17.6155 21.0558C17.6135 21.0558 17.6114 21.0554 17.6094 21.0547C17.6001 21.0513 17.5952 21.041 17.5985 21.0319L17.9977 19.9358L18.6599 18.202C18.6599 18.202 18.6606 18.2005 18.661 18.1998L19.6002 16.4953L19.7271 14.6325L19.7192 14.6276C19.2083 14.3037 18.6017 13.7472 18.0223 13.1938L16.2728 11.9035C16.269 11.9006 16.2665 11.8966 16.2658 11.8917C16.2651 11.887 16.2663 11.8823 16.2692 11.8785C16.2726 11.874 16.278 11.8713 16.2837 11.8713C16.2875 11.8713 16.2913 11.8725 16.2945 11.8749L18.0442 13.1649C18.0442 13.1649 18.0454 13.1658 18.046 13.1665C18.6317 13.7259 19.2442 14.2878 19.7556 14.6079C19.7612 14.6115 19.7644 14.6177 19.7639 14.6242L19.6361 16.5016C19.6361 16.5041 19.6352 16.5067 19.6339 16.509L18.6938 18.2148L18.0316 19.9481L17.6326 21.044C17.6302 21.0511 17.6232 21.0558 17.6157 21.0558H17.6155Z" fill="#EDF0F2"/>
<path d="M16.8834 21.1926C16.8798 21.1926 16.8761 21.192 16.8725 21.1909C16.8547 21.185 16.8452 21.166 16.8513 21.1484L17.3029 19.8174C17.3288 19.7441 17.3537 19.6732 17.3778 19.604C17.5611 19.0793 17.7061 18.6646 17.9942 18.2123C18.0944 18.0098 18.1915 17.8293 18.2771 17.6701C18.5412 17.1786 18.716 16.8534 18.657 16.5183C18.4064 15.8285 18.4044 15.4323 18.6509 14.7691L17.2559 13.2583L15.7349 12.1831C15.7197 12.1724 15.7161 12.1513 15.727 12.1363C15.7378 12.1214 15.759 12.1178 15.7741 12.1285L17.2981 13.2058C17.3001 13.2071 17.3017 13.2087 17.3035 13.2105L18.7146 14.7389C18.7232 14.7483 18.7259 14.7615 18.7214 14.7734C18.471 15.4393 18.4712 15.8099 18.7214 16.4984C18.7221 16.5002 18.7225 16.502 18.723 16.504C18.7875 16.8628 18.6083 17.1965 18.3367 17.7018C18.2511 17.8611 18.154 18.0416 18.054 18.2436C18.0535 18.2447 18.0529 18.2456 18.0522 18.2467C17.7677 18.693 17.6239 19.1048 17.4417 19.626C17.4175 19.6951 17.3927 19.766 17.367 19.8391L16.9157 21.1696C16.9109 21.1837 16.8978 21.1924 16.8836 21.1924L16.8834 21.1926Z" fill="#DAE0E6"/>
<path d="M16.8714 21.1677C16.8694 21.1677 16.8676 21.1675 16.8655 21.1668C16.8561 21.1637 16.8511 21.1536 16.8543 21.1442L17.3058 19.8133C17.3309 19.7422 17.355 19.6733 17.3785 19.6062L17.3805 19.6001C17.5636 19.0763 17.7081 18.6625 17.9953 18.2117C18.0965 18.0082 18.1933 17.8279 18.2787 17.6686C18.5446 17.1738 18.7203 16.847 18.6602 16.5066V16.5052L18.6595 16.5039C18.4096 15.8154 18.408 15.4253 18.6534 14.7654L18.6568 14.7565L17.2546 13.2374L15.7322 12.1611C15.724 12.1553 15.7222 12.1441 15.7279 12.136C15.7313 12.1313 15.7367 12.1284 15.7426 12.1284C15.7464 12.1284 15.75 12.1295 15.7529 12.1318L17.2771 13.2093C17.2771 13.2093 17.2792 13.2108 17.2801 13.2117L18.6911 14.7402C18.6957 14.7451 18.697 14.7522 18.6948 14.7585C18.4428 15.4287 18.443 15.8018 18.6948 16.4943C18.6952 16.4952 18.6954 16.4963 18.6954 16.4972C18.7591 16.8506 18.5807 17.1826 18.3107 17.685C18.2251 17.8442 18.1281 18.025 18.0278 18.2272C17.7413 18.6765 17.5973 19.0892 17.4149 19.6113L17.4135 19.6153C17.3898 19.6831 17.3654 19.7527 17.3401 19.8243L16.8886 21.155C16.8861 21.1623 16.8793 21.167 16.8714 21.167V21.1677Z" fill="#EDF0F2"/>
<path d="M16.6697 21.0807C16.6679 21.0807 16.6659 21.0807 16.6641 21.0803C16.6455 21.0771 16.6331 21.0599 16.6363 21.0416L16.8395 19.8337C16.8395 19.8326 16.8399 19.8312 16.8402 19.8301L17.303 18.186L17.8713 16.505L17.7762 14.8815C17.7128 14.6124 17.4272 14.3335 17.0964 14.0105C16.9194 13.8376 16.7363 13.6589 16.5701 13.4643L15.2435 12.2696C15.2297 12.257 15.2286 12.2358 15.2412 12.2222C15.2539 12.2085 15.2753 12.2074 15.2891 12.2199L16.6171 13.4164C16.6171 13.4164 16.6191 13.4184 16.6203 13.4195C16.7848 13.6124 16.9675 13.7906 17.1438 13.9629C17.4832 14.2941 17.7762 14.5805 17.8428 14.8695C17.8433 14.8712 17.8435 14.873 17.8437 14.875L17.9394 16.5079C17.9397 16.5122 17.9392 16.5164 17.9376 16.5205L17.3678 18.2059L16.9059 19.8466L16.7029 21.0528C16.7002 21.0691 16.6857 21.0807 16.6695 21.0807H16.6697Z" fill="#DAE0E6"/>
<path d="M16.658 21.0558C16.658 21.0558 16.656 21.0558 16.6549 21.0555C16.6501 21.0547 16.6461 21.0522 16.6431 21.0484C16.6404 21.0446 16.6393 21.0399 16.64 21.035L16.8432 19.8271L17.3065 18.1812L17.8754 16.4982L17.7801 14.8702V14.8689C17.7153 14.5953 17.4281 14.3151 17.0958 13.9903C16.919 13.8176 16.7362 13.6391 16.5704 13.4451L15.2422 12.2491C15.2386 12.246 15.2366 12.2415 15.2363 12.2368C15.2361 12.2321 15.2377 12.2274 15.2411 12.2238C15.2445 12.22 15.2492 12.218 15.2544 12.218C15.2589 12.218 15.2632 12.2196 15.2666 12.2227L16.5948 13.4188C16.5948 13.4188 16.596 13.4199 16.5964 13.4205C16.7614 13.6138 16.9441 13.7923 17.1209 13.9648C17.4586 14.2945 17.7503 14.5792 17.8156 14.8638C17.8158 14.8646 17.816 14.8658 17.816 14.8667L17.9118 16.4996C17.9118 16.5018 17.9118 16.504 17.9108 16.5063L17.3412 18.1917L16.8791 19.8331L16.6759 21.0408C16.6745 21.0495 16.6668 21.0558 16.658 21.0558Z" fill="#EDF0F2"/>
<path style="mix-blend-mode:overlay" opacity="0.5" d="M16.3877 19.8618C16.3852 19.8618 16.3827 19.8616 16.38 19.861C16.3617 19.8569 16.3505 19.8388 16.3545 19.8207L16.7264 18.2135C16.7289 18.0757 16.7155 17.9744 16.7024 17.8766C16.6654 17.5993 16.6363 17.3803 17.0402 16.5849C17.1937 15.8358 17.1192 15.379 16.9585 14.9278C16.5015 14.6764 16.2658 14.4006 15.8752 13.8774C15.8641 13.8624 15.8673 13.8416 15.8822 13.8304C15.8971 13.8195 15.9183 13.8226 15.9296 13.8374C16.3263 14.3688 16.5478 14.6276 17.0023 14.8753C17.0095 14.8793 17.0151 14.8858 17.0178 14.8934C17.1858 15.36 17.2648 15.829 17.1057 16.6028C17.105 16.6057 17.1041 16.6086 17.1027 16.6113C16.706 17.3913 16.7327 17.5912 16.7697 17.8681C16.7826 17.9646 16.797 18.0739 16.7941 18.2187C16.7941 18.2209 16.7939 18.2234 16.7932 18.2254L16.4207 19.8357C16.4171 19.8511 16.4031 19.8618 16.3877 19.8618ZM18.8333 21.1751L19.7221 19.5364L21.0948 18.3361C21.0948 18.3361 21.0962 18.3348 21.0969 18.3341L22.5186 16.8652C22.5217 16.8618 22.5244 16.8578 22.526 16.8533L23.3042 14.7328C23.3092 14.7196 23.3051 14.7046 23.2941 14.6956L21.4739 13.1898C21.4712 13.1876 21.4683 13.1858 21.4649 13.1844L19.2372 12.293L16.3119 10.9176C16.2949 10.9096 16.2748 10.9167 16.2667 10.9335C16.2586 10.9503 16.2658 10.9702 16.2827 10.9782L19.2101 12.3548L21.4346 13.245L23.2324 14.7323L22.4648 16.824L21.049 18.2867L19.6729 19.4899C19.67 19.4925 19.6675 19.4957 19.6655 19.4993L18.7737 21.1433C18.7649 21.1597 18.771 21.18 18.7874 21.1887C18.7926 21.1914 18.7981 21.1928 18.8035 21.1928C18.8154 21.1928 18.8272 21.1863 18.8333 21.1751ZM18.5637 21.2391L19.0724 20.0119L20.1956 18.3323C20.6693 17.8565 21.1759 17.3206 21.7037 16.4683C21.7071 16.4627 21.7089 16.4565 21.7087 16.4498L21.657 14.5923C21.6568 14.5836 21.6532 14.5753 21.6468 14.5693L20.2267 13.199C20.2245 13.1967 20.2218 13.1947 20.2188 13.1932L18.0643 12.0823L16.2179 11.0091C16.2019 10.9997 16.1811 11.0051 16.1716 11.0212C16.1622 11.0371 16.1676 11.0576 16.1838 11.067L18.0316 12.1409L20.1832 13.2502L21.5897 14.6075L21.641 16.4415C21.1179 17.2841 20.6153 17.8154 20.1452 18.2873C20.1437 18.2889 20.1423 18.2905 20.1412 18.2925L19.0143 19.9775C19.0132 19.9793 19.0121 19.9813 19.0112 19.9833L18.5012 21.2136C18.4942 21.2308 18.5023 21.2503 18.5197 21.2574C18.524 21.2592 18.5283 21.2599 18.5325 21.2599C18.5459 21.2599 18.5585 21.252 18.5639 21.2391H18.5637ZM18.1727 21.2357L18.5639 19.9081L19.432 18.3285L20.7336 16.4697C20.7381 16.4634 20.7401 16.4558 20.7395 16.448L20.5984 14.5578C20.5977 14.5489 20.5934 14.5404 20.5864 14.5346C19.9678 14.0188 19.2731 13.3555 19.0697 13.0862C19.067 13.0827 19.0638 13.0797 19.06 13.0775L17.0921 11.9047L16.3191 11.269C16.3046 11.2572 16.2834 11.2592 16.2714 11.2735C16.2595 11.2878 16.2615 11.3088 16.276 11.3207L17.0508 11.958C17.0522 11.9591 17.0535 11.96 17.0549 11.9609L19.0193 13.1319C19.2291 13.4061 19.9165 14.0631 20.5318 14.5769L20.6711 16.441L19.3754 18.2916C19.3754 18.2916 19.374 18.2936 19.3735 18.2947L18.503 19.8791C18.5018 19.8811 18.5009 19.8833 18.5003 19.8858L18.1079 21.2167C18.1027 21.2346 18.1128 21.2532 18.1309 21.2583C18.1341 21.2592 18.1372 21.2596 18.1404 21.2596C18.1551 21.2596 18.1686 21.2503 18.1729 21.2355L18.1727 21.2357ZM17.6613 21.0588L18.0602 19.9632L18.7215 18.2319L19.6616 16.526C19.6639 16.5218 19.6655 16.5171 19.6657 16.5122L19.7935 14.6348C19.7944 14.6225 19.7883 14.6109 19.7777 14.6042C19.2674 14.2847 18.6556 13.7235 18.0706 13.1645C18.0695 13.1636 18.0686 13.1625 18.0672 13.1618L16.3177 11.8719C16.3028 11.8609 16.2816 11.8638 16.2703 11.8788C16.2592 11.8935 16.2622 11.9146 16.2773 11.9258L18.0252 13.2146C18.6059 13.7694 19.2133 14.3263 19.7246 14.6505L19.5986 16.5008L18.661 18.2021C18.6603 18.2035 18.6597 18.2048 18.659 18.2064L17.9968 19.9404L17.5976 21.0364C17.5913 21.0539 17.6003 21.0731 17.6179 21.0794C17.6218 21.0807 17.6256 21.0814 17.6295 21.0814C17.6432 21.0814 17.6563 21.0729 17.6613 21.0592V21.0588ZM16.9165 21.1699L17.3678 19.8395C17.3938 19.7663 17.4184 19.6954 17.4425 19.6263C17.6247 19.1051 17.7685 18.6933 18.053 18.2471C18.0537 18.2462 18.0541 18.2451 18.0548 18.2439C18.1551 18.0417 18.2519 17.8614 18.3375 17.7022C18.6091 17.1969 18.7883 16.8631 18.7238 16.5043C18.7236 16.5026 18.7229 16.5005 18.7222 16.4988C18.4718 15.8103 18.4718 15.4394 18.7222 14.7737C18.7267 14.7618 18.724 14.7487 18.7154 14.7393L17.3046 13.2106C17.303 13.2088 17.3012 13.2072 17.2992 13.2059L15.7752 12.1286C15.7598 12.1179 15.7388 12.1215 15.728 12.1365C15.7172 12.1515 15.7208 12.1725 15.7359 12.1832L17.2569 13.2585L18.6518 14.7692C18.4052 15.4325 18.4072 15.8286 18.6579 16.5184C18.7168 16.8535 18.542 17.1788 18.2779 17.6702C18.1923 17.8295 18.0952 18.01 17.995 18.2124C17.7069 18.6647 17.5622 19.0792 17.3786 19.6042C17.3545 19.6733 17.3296 19.744 17.3037 19.8176L16.8521 21.1485C16.8463 21.1661 16.8557 21.1852 16.8733 21.191C16.877 21.1921 16.8806 21.1928 16.8842 21.1928C16.8984 21.1928 16.9115 21.1838 16.9162 21.1699H16.9165ZM16.7033 21.053L16.9063 19.8469L17.3682 18.2061L17.9381 16.5207C17.9394 16.5167 17.9401 16.5124 17.9399 16.5082L17.8442 14.8753C17.8442 14.8735 17.8437 14.8715 17.8433 14.8697C17.7769 14.5807 17.4836 14.2943 17.1443 13.9631C16.9677 13.7908 16.7853 13.6126 16.6207 13.4197C16.6198 13.4186 16.6187 13.4175 16.6175 13.4166L15.2891 12.2206C15.2753 12.208 15.2539 12.2092 15.2412 12.2228C15.2286 12.2365 15.2297 12.2577 15.2435 12.2702L16.5701 13.4649C16.7363 13.6595 16.9194 13.8383 17.0964 14.0112C17.4272 14.3339 17.7128 14.6131 17.7762 14.8822L17.8713 16.5057L17.303 18.1867L16.8402 19.8308C16.8399 19.8319 16.8395 19.833 16.8395 19.8343L16.6363 21.0422C16.6331 21.0606 16.6458 21.0778 16.6641 21.0809C16.6659 21.0811 16.6679 21.0814 16.6697 21.0814C16.686 21.0814 16.7004 21.0697 16.7031 21.0534L16.7033 21.053Z" fill="url(#paint9_linear_2066_6304)"/>
<path d="M19.6268 21.4947C19.6196 21.4947 19.6124 21.4929 19.6054 21.4893C19.5835 21.4777 19.5751 21.4504 19.5871 21.4287L20.3008 20.1148C20.3017 20.1132 20.3026 20.1116 20.3037 20.1101L21.1754 18.8963C21.1763 18.8952 21.1772 18.8939 21.1781 18.8928L22.7389 17.1237C23.2128 16.3018 23.3148 15.8256 23.1925 15.0078C22.826 14.1838 22.2318 13.7337 21.3228 13.5919C21.3188 13.5912 21.3147 13.5901 21.3111 13.5883L19.0579 12.5656C19.0579 12.5656 19.0565 12.565 19.0559 12.5645L16.0048 10.9876C15.9826 10.9761 15.9741 10.9491 15.9856 10.9272C15.9971 10.9052 16.0244 10.8967 16.0465 10.9081L19.0965 12.4847L21.3432 13.5044C22.284 13.653 22.899 14.1211 23.2778 14.9774C23.2794 14.981 23.2805 14.9848 23.2812 14.9888C23.4072 15.8252 23.2983 16.3354 22.8152 17.1722C22.8136 17.1749 22.812 17.1771 22.81 17.1793L21.2479 18.9503L20.3791 20.1599L19.6668 21.4714C19.6587 21.4864 19.6431 21.4949 19.6271 21.4949L19.6268 21.4947Z" fill="#DDDEE1"/>
<path d="M19.604 21.45C19.6002 21.45 19.5968 21.4491 19.5934 21.4473C19.588 21.4444 19.5842 21.4397 19.5824 21.4341C19.5806 21.4283 19.5812 21.4223 19.5842 21.4171L20.2978 20.1032C20.2978 20.1032 20.2987 20.1017 20.2992 20.101L21.1709 18.8873L21.1723 18.8855L22.7344 17.1146L22.7355 17.1126C23.2128 16.2847 23.3153 15.8067 23.1918 14.9822L23.1913 14.9793L23.1902 14.9766C22.8204 14.1449 22.221 13.6909 21.3034 13.5477C21.3014 13.5475 21.2994 13.5468 21.2976 13.5459L19.0443 12.5232L15.9926 10.9456C15.9815 10.94 15.9772 10.9264 15.9831 10.9154C15.9869 10.908 15.9946 10.9033 16.0032 10.9033C16.0068 10.9033 16.0104 10.9042 16.0136 10.9058L19.0633 12.4823L21.3138 13.5036L21.317 13.5041C22.2496 13.6513 22.859 14.1152 23.2345 14.9639C23.2354 14.9656 23.2358 14.9677 23.236 14.9694C23.3611 15.8 23.253 16.3066 22.7728 17.1383C22.7721 17.1396 22.7712 17.1407 22.77 17.1421L21.2079 18.9128L20.3371 20.1254L19.6241 21.4382C19.6203 21.4453 19.6126 21.45 19.6043 21.45H19.604Z" fill="#F3F4F7"/>
<path d="M19.3998 21.4947C19.3928 21.4947 19.3856 21.4931 19.3788 21.4895C19.3567 21.4779 19.3483 21.4508 19.3601 21.4291L20.0347 20.1651C20.0356 20.1633 20.0365 20.1617 20.0376 20.1602L21.6648 17.8717C22.0427 16.9794 22.0619 16.3267 22.0791 15.7509L22.0806 15.697C21.828 15.187 21.2055 14.6417 20.3706 14.1992L18.0337 12.9446L15.7317 11.7819C15.7096 11.7707 15.7005 11.7436 15.712 11.7217C15.7233 11.6998 15.7504 11.6908 15.7728 11.7022L18.0757 12.8654L20.4133 14.1205C21.2699 14.5743 21.909 15.1385 22.1667 15.6679C22.1698 15.6744 22.1714 15.6816 22.1712 15.6887L22.1694 15.7536C22.1522 16.3383 22.1326 17.0009 21.7463 17.911C21.7449 17.9139 21.7433 17.9169 21.7415 17.9195L20.1133 20.2098L19.4398 21.4714C19.4316 21.4866 19.4161 21.4953 19.3998 21.4953V21.4947Z" fill="#DDDEE1"/>
<path d="M19.3771 21.4499C19.3735 21.4499 19.3699 21.449 19.3668 21.4472C19.3613 21.4445 19.3575 21.4398 19.3557 21.434C19.3539 21.4282 19.3546 21.4222 19.3573 21.417L20.0319 20.153C20.0319 20.153 20.0328 20.1512 20.0335 20.1505L21.6622 17.86L21.6631 17.8577C22.0426 16.9617 22.062 16.3067 22.079 15.7289L22.0808 15.6694L22.0783 15.6645C21.8236 15.1505 21.1969 14.6009 20.3586 14.1569L18.0218 12.9023L15.7194 11.7395C15.714 11.7369 15.7101 11.7322 15.7081 11.7266C15.7063 11.721 15.7068 11.7149 15.7095 11.7096C15.7133 11.702 15.721 11.6973 15.7296 11.6973C15.7332 11.6973 15.7366 11.6982 15.7397 11.6997L18.0426 12.8629L20.3798 14.1175C21.2325 14.5694 21.8681 15.1297 22.1237 15.6549C22.1252 15.658 22.1259 15.6616 22.1259 15.6652L22.1241 15.7301C22.107 16.3128 22.0875 16.9733 21.7028 17.8794C21.7021 17.881 21.7015 17.8824 21.7006 17.8837L20.0714 20.1751L19.3975 21.4378C19.3936 21.4452 19.3859 21.4497 19.3774 21.4497L19.3771 21.4499Z" fill="#F3F4F7"/>
<path d="M19.0749 21.5913C19.0681 21.5913 19.0613 21.5898 19.0548 21.5866C19.0324 21.5757 19.0234 21.5488 19.0344 21.5267C19.4162 20.7684 19.5438 20.4501 19.6282 20.2394C19.7702 19.8851 19.782 19.8553 20.634 18.6358C20.8237 17.7509 21.058 16.654 20.9682 16.3594C20.9677 16.3578 20.9673 16.3562 20.9671 16.3547C20.9355 16.1865 20.5422 15.8474 20.1256 15.4884C19.8226 15.2273 19.5095 14.9573 19.2586 14.6929L16.9273 13.2719L15.2431 12.4004C15.2209 12.389 15.2124 12.3619 15.2239 12.34C15.2354 12.3181 15.2627 12.3096 15.2848 12.321L16.9704 13.1934C16.9704 13.1934 16.9722 13.1942 16.9731 13.1949L19.3112 14.6198C19.3146 14.6218 19.3178 14.6245 19.3205 14.6274C19.5689 14.8898 19.8822 15.1598 20.185 15.4208C20.6487 15.8205 21.0154 16.1366 21.0553 16.3357C21.1436 16.632 20.9641 17.5259 20.7205 18.6631C20.7192 18.6689 20.7169 18.6743 20.7135 18.6792C19.8621 19.8976 19.8508 19.926 19.7122 20.2723C19.6273 20.4843 19.4989 20.8049 19.1153 21.5665C19.1074 21.5822 19.0913 21.5913 19.0749 21.5913Z" fill="#DDDEE1"/>
<path d="M19.0523 21.5467C19.0487 21.5467 19.0453 21.5458 19.0421 21.5442C19.0367 21.5415 19.0326 21.5371 19.0308 21.5313C19.029 21.5257 19.0293 21.5196 19.032 21.5143C19.4142 20.7553 19.542 20.4363 19.6264 20.2252C19.7678 19.8722 19.7793 19.8433 20.63 18.6258L20.6325 18.622L20.6334 18.6175C20.823 17.7324 21.059 16.631 20.9671 16.3299C20.9671 16.3293 20.9666 16.3284 20.9664 16.3275C20.9332 16.1514 20.5553 15.8257 20.1177 15.4484C19.8152 15.1876 19.5025 14.918 19.2523 14.6545L19.2503 14.6523L16.9165 13.2306L15.2309 12.3582C15.2198 12.3524 15.2155 12.339 15.2214 12.328C15.2252 12.3206 15.2329 12.3159 15.2415 12.3159C15.2451 12.3159 15.2487 12.3168 15.2519 12.3184L16.9375 13.191L19.2769 14.6165C19.2787 14.6176 19.2801 14.6187 19.2814 14.6203C19.5305 14.8834 19.8441 15.1538 20.1475 15.4151C20.6085 15.8123 20.9723 16.1259 21.0109 16.3176C21.098 16.6109 20.919 17.5018 20.676 18.6359C20.6754 18.6388 20.6742 18.6415 20.6724 18.6439C19.8197 19.8646 19.8082 19.893 19.6686 20.2415C19.5838 20.4533 19.4555 20.7734 19.0726 21.5342C19.0688 21.5418 19.0611 21.5465 19.0523 21.5465V21.5467Z" fill="#F3F4F7"/>
<path d="M18.861 21.5916C18.8594 21.5916 18.8578 21.5916 18.8562 21.5914C18.8314 21.5887 18.8133 21.5668 18.816 21.5422C18.8989 20.757 19.0885 20.3146 19.5096 19.5641C19.5374 19.3496 19.5773 19.1282 19.6157 18.9141C19.7182 18.3442 19.8241 17.7548 19.7383 17.1618C19.5207 16.6426 19.0046 16.1022 18.1143 15.4618C17.2968 15.0808 16.8766 14.6708 16.2955 14.1038C16.1989 14.0096 16.0991 13.9123 15.9923 13.8099C15.9745 13.7926 15.9738 13.7645 15.9912 13.7466C16.0086 13.7289 16.037 13.7282 16.0551 13.7454C16.1623 13.8481 16.2623 13.9456 16.359 14.04C16.9347 14.6017 17.3505 15.0077 18.1565 15.3826C18.159 15.3837 18.1615 15.3853 18.1638 15.3868C19.073 16.0407 19.6004 16.5954 19.8237 17.1329C19.825 17.1363 19.8261 17.1399 19.8266 17.1434C19.916 17.7527 19.8083 18.3511 19.7044 18.93C19.6638 19.1559 19.6254 19.3693 19.5979 19.5843C19.5972 19.5899 19.5954 19.5955 19.5925 19.6004C19.1748 20.3441 18.9869 20.7796 18.9057 21.5518C18.9032 21.5748 18.8835 21.5918 18.8607 21.5918L18.861 21.5916Z" fill="#DDDEE1"/>
<path d="M18.8359 21.5469C18.8237 21.5455 18.8147 21.5346 18.816 21.5223C18.8987 20.7394 19.0874 20.3005 19.5069 19.5529L19.5089 19.5491L19.5094 19.5449C19.5371 19.3311 19.5769 19.1098 19.6153 18.8962C19.7182 18.3242 19.8243 17.7331 19.7381 17.1365L19.7376 17.1338L19.7365 17.1311C19.5173 16.6079 18.9989 16.0648 18.1051 15.4215L18.1033 15.4202L18.1012 15.4193C17.2871 15.0399 16.8683 14.6312 16.2887 14.0655C16.1923 13.9714 16.0925 13.8741 15.9853 13.7714C15.981 13.7671 15.9785 13.7618 15.9785 13.7557C15.9785 13.7497 15.9805 13.7441 15.9848 13.7398C15.9891 13.7354 15.995 13.7329 16.0011 13.7329C16.0072 13.7329 16.0126 13.7351 16.0167 13.7392C16.123 13.8409 16.2221 13.9376 16.3181 14.0313L16.3206 14.0338C16.8979 14.597 17.3149 15.0041 18.1245 15.3806C18.1258 15.3812 18.127 15.3819 18.1281 15.3828C19.0337 16.0342 19.5588 16.5858 19.7803 17.1193C19.781 17.1211 19.7814 17.1228 19.7816 17.1246C19.8706 17.7301 19.7634 18.3269 19.6595 18.9038C19.6189 19.1304 19.5805 19.3438 19.5527 19.5592C19.5523 19.5621 19.5514 19.5648 19.55 19.5673C19.1307 20.3137 18.9422 20.751 18.8603 21.5272C18.8591 21.5386 18.8494 21.5473 18.8379 21.5473C18.837 21.5473 18.8361 21.5473 18.8354 21.5473L18.8359 21.5469Z" fill="#F3F4F7"/>
<path d="M18.3056 21.5915C18.3042 21.5915 18.3031 21.5915 18.3018 21.5915C18.2769 21.5895 18.2584 21.5678 18.2607 21.5432L18.351 20.4845C18.351 20.4824 18.3514 20.4804 18.3519 20.4786C18.5973 19.3826 18.6285 18.8281 18.4892 18.019L16.813 16.2794L15.5803 15.1071C15.5622 15.0901 15.5618 15.0617 15.5789 15.0438C15.5961 15.0259 15.6248 15.0255 15.6428 15.0425L16.8769 16.2161L18.5641 17.9667C18.5702 17.9732 18.5745 17.9812 18.5758 17.9899C18.7199 18.8191 18.6896 19.3813 18.4406 20.4945L18.3505 21.5503C18.3485 21.5736 18.3289 21.5912 18.3056 21.5912V21.5915Z" fill="#DDDEE1"/>
<path d="M18.2813 21.5469C18.2689 21.5457 18.2596 21.535 18.2608 21.5227L18.3511 20.464C18.3511 20.464 18.3513 20.462 18.3515 20.4611C18.5981 19.3592 18.629 18.8056 18.489 17.993L18.4879 17.9863L16.807 16.2417L15.5734 15.0687C15.5691 15.0647 15.5666 15.0591 15.5664 15.0531C15.5664 15.047 15.5684 15.0415 15.5727 15.0372C15.577 15.0327 15.5829 15.0303 15.589 15.0303C15.5949 15.0303 15.6003 15.0325 15.6046 15.0365L16.8389 16.2102L18.5254 17.9601C18.5285 17.9632 18.5306 17.9672 18.5312 17.9717C18.6748 18.7978 18.6446 19.3577 18.3962 20.4678V20.4694L18.3057 21.5267C18.3048 21.5381 18.2949 21.5473 18.2833 21.5473H18.2813V21.5469Z" fill="#F3F4F7"/>
<path d="M17.1619 21.2035C17.1378 21.2035 17.1179 21.1847 17.1168 21.1606L17.0272 18.9535L15.9906 17.6901C15.9748 17.6709 15.9778 17.6427 15.9972 17.6273C16.0166 17.6116 16.0451 17.6145 16.0606 17.6338L17.1066 18.9088C17.1127 18.9161 17.1163 18.9255 17.1168 18.9351L17.2071 21.157C17.208 21.1816 17.1888 21.2024 17.1638 21.2035C17.1631 21.2035 17.1626 21.2035 17.1619 21.2035Z" fill="#DDDEE1"/>
<path d="M17.1395 21.1588C17.1273 21.1588 17.1174 21.1494 17.1169 21.1373L17.0268 18.9229L15.9856 17.6537C15.9817 17.649 15.9799 17.6432 15.9806 17.6373C15.9813 17.6313 15.9842 17.6262 15.9887 17.6224C15.9939 17.6181 15.9993 17.6174 16.003 17.6174C16.0097 17.6174 16.0163 17.6203 16.0206 17.6257L17.0666 18.9007C17.0697 18.9045 17.0713 18.9092 17.0715 18.9139L17.1618 21.1358C17.1621 21.1418 17.16 21.1474 17.156 21.1519C17.1519 21.1563 17.1463 21.1588 17.1404 21.159H17.1395V21.1588Z" fill="#F3F4F7"/>
<path style="mix-blend-mode:overlay" opacity="0.7" d="M19.627 21.4947C19.6198 21.4947 19.6126 21.4929 19.6056 21.4893C19.5837 21.4777 19.5753 21.4504 19.5873 21.4287L20.301 20.1148C20.3019 20.1132 20.3028 20.1116 20.3039 20.1101L21.1756 18.8963C21.1765 18.8952 21.1774 18.8939 21.1783 18.8928L22.7391 17.1237C23.213 16.3018 23.315 15.8256 23.1926 15.0078C22.8262 14.1838 22.232 13.7337 21.323 13.5919C21.319 13.5912 21.3149 13.5901 21.3113 13.5883L19.0581 12.5656C19.0581 12.5656 19.0567 12.565 19.056 12.5645L16.005 10.9876C15.9828 10.9761 15.9743 10.9491 15.9858 10.9272C15.9973 10.9052 16.0246 10.8967 16.0467 10.9081L19.0967 12.4847L21.3433 13.5044C22.2841 13.653 22.8991 14.1211 23.278 14.9774C23.2796 14.981 23.2807 14.9848 23.2814 14.9888C23.4074 15.8252 23.2985 16.3354 22.8154 17.1722C22.8138 17.1749 22.8122 17.1771 22.8102 17.1793L21.2481 18.9503L20.3793 20.1599L19.667 21.4714C19.6589 21.4864 19.6433 21.4949 19.6272 21.4949L19.627 21.4947ZM19.4426 21.4707L20.116 20.2091L21.7443 17.9188C21.7461 17.9162 21.7477 17.9135 21.7491 17.9103C22.1354 17.0004 22.155 16.3376 22.1722 15.7529L22.174 15.688C22.174 15.6809 22.1726 15.6737 22.1694 15.6672C21.9118 15.1378 21.2727 14.5737 20.4161 14.1198L18.0785 12.8647L15.7756 11.7022C15.7534 11.691 15.7261 11.6998 15.7148 11.7217C15.7036 11.7436 15.7124 11.7707 15.7345 11.7819L18.0365 12.9446L20.3734 14.1992C21.2083 14.6417 21.8308 15.187 22.0834 15.697L22.0818 15.7509C22.0649 16.3269 22.0455 16.9794 21.6676 17.8717L20.0404 20.1602C20.0393 20.1617 20.0384 20.1633 20.0375 20.1651L19.3629 21.4291C19.3511 21.451 19.3597 21.4781 19.3816 21.4895C19.3884 21.4931 19.3956 21.4947 19.4026 21.4947C19.4189 21.4947 19.4344 21.4859 19.4426 21.4707ZM19.1172 21.5667C19.5008 20.805 19.6291 20.4845 19.7142 20.2725C19.853 19.9262 19.8643 19.8978 20.7155 18.6794C20.7189 18.6745 20.7213 18.6691 20.7225 18.6633C20.9661 17.5261 21.1456 16.6322 21.0573 16.3358C21.0173 16.1368 20.6507 15.8207 20.1869 15.421C19.884 15.1599 19.5708 14.8899 19.3225 14.6276C19.3197 14.6247 19.3166 14.6222 19.3132 14.62L16.9753 13.1951C16.9753 13.1951 16.9735 13.194 16.9726 13.1935L15.2868 12.3212C15.2647 12.3097 15.2373 12.3182 15.2258 12.3402C15.2143 12.3621 15.2229 12.3892 15.245 12.4006L16.9293 13.272L19.2608 14.6929C19.5117 14.957 19.8248 15.227 20.1278 15.4883C20.5441 15.8473 20.9376 16.1862 20.9692 16.3546C20.9695 16.3562 20.9699 16.3578 20.9704 16.3593C21.0602 16.6537 20.8259 17.7506 20.6362 18.6358C19.7842 19.8553 19.7722 19.885 19.6304 20.2393C19.546 20.4501 19.4184 20.7686 19.0366 21.5266C19.0256 21.5488 19.0346 21.5756 19.0569 21.5866C19.0635 21.5897 19.0703 21.5913 19.077 21.5913C19.0935 21.5913 19.1096 21.5821 19.1175 21.5665L19.1172 21.5667ZM18.9079 21.5515C18.9894 20.7793 19.1771 20.3438 19.5947 19.6001C19.5974 19.5951 19.5993 19.5895 19.6002 19.584C19.6277 19.369 19.6661 19.1556 19.7067 18.9297C19.8108 18.3508 19.9183 17.7524 19.8289 17.1431C19.8284 17.1395 19.8273 17.136 19.8259 17.1326C19.6026 16.5953 19.0752 16.0406 18.166 15.3865C18.1638 15.385 18.1613 15.3834 18.1588 15.3823C17.3528 15.0074 16.9367 14.6016 16.3612 14.0397C16.2646 13.9453 16.1646 13.8478 16.0573 13.7451C16.0395 13.7279 16.0108 13.7284 15.9934 13.7462C15.9761 13.7639 15.9765 13.7923 15.9946 13.8095C16.1016 13.912 16.2014 14.0093 16.2978 14.1035C16.8789 14.6705 17.2991 15.0805 18.1166 15.4615C19.0066 16.1021 19.5229 16.6425 19.7406 17.1615C19.8264 17.7544 19.7205 18.3438 19.618 18.9138C19.5794 19.1281 19.5396 19.3493 19.5119 19.5638C19.0908 20.3143 18.9012 20.7567 18.8183 21.5419C18.8158 21.5665 18.8337 21.5884 18.8585 21.5911C18.8601 21.5911 18.8617 21.5913 18.8632 21.5913C18.886 21.5913 18.9057 21.5743 18.9082 21.5513L18.9079 21.5515ZM18.3512 21.5506L18.4413 20.4948C18.6903 19.3813 18.7205 18.8192 18.5765 17.9902C18.5749 17.9815 18.5709 17.9734 18.5648 17.9669L16.8776 16.2162L15.6433 15.0425C15.6252 15.0253 15.5968 15.0259 15.5794 15.0438C15.562 15.0617 15.5627 15.0899 15.5807 15.1071L16.8137 16.2795L18.4898 18.0188C18.6291 18.8279 18.5977 19.3824 18.3525 20.4785C18.3521 20.4805 18.3519 20.4823 18.3516 20.4843L18.2613 21.543C18.2593 21.5676 18.2776 21.5893 18.3024 21.5913C18.3038 21.5913 18.3049 21.5913 18.3063 21.5913C18.3295 21.5913 18.3492 21.5736 18.3512 21.5504V21.5506ZM17.1641 21.2039C17.1889 21.203 17.2083 21.1822 17.2074 21.1573L17.1171 18.9355C17.1167 18.9259 17.1133 18.9165 17.107 18.9091L16.0609 17.6341C16.0451 17.6149 16.0167 17.612 15.9975 17.6276C15.9781 17.6433 15.9752 17.6715 15.991 17.6905L17.0275 18.9538L17.1171 21.1609C17.118 21.1851 17.1381 21.2039 17.1623 21.2039C17.1629 21.2039 17.1634 21.2039 17.1641 21.2039Z" fill="url(#paint10_linear_2066_6304)"/>
<path d="M14.5472 14.4656C14.53 14.4656 14.5137 14.456 14.5061 14.4397C14.4957 14.4173 14.5056 14.3907 14.5282 14.3804L15.9377 13.7378L16.9295 13.1942C16.9322 13.1927 16.9354 13.1915 16.9383 13.1904L18.0432 12.8629L19.0473 12.4883L19.1845 12.2876C19.1985 12.2673 19.2265 12.2619 19.2473 12.2758C19.2678 12.2896 19.2733 12.3174 19.2593 12.338L19.1139 12.5505C19.1087 12.5581 19.1012 12.5639 19.0924 12.5672L18.0735 12.9475C18.0735 12.9475 18.0715 12.9482 18.0706 12.9484L16.9688 13.275L15.9797 13.817C15.9797 13.817 15.9777 13.8181 15.9768 13.8185L14.5657 14.4618C14.5596 14.4645 14.553 14.4659 14.5469 14.4659L14.5472 14.4656Z" fill="#DDDEE1"/>
<path d="M14.5245 14.421C14.5157 14.421 14.5076 14.4159 14.504 14.408C14.5015 14.4027 14.5013 14.3966 14.5033 14.3908C14.5054 14.385 14.5096 14.3807 14.5151 14.3783L15.9246 13.7356L16.918 13.1914C16.9193 13.1907 16.9209 13.1901 16.9225 13.1896L18.0274 12.8622L19.0398 12.4843L19.1811 12.2777C19.1854 12.2716 19.1924 12.2678 19.1998 12.2678C19.2044 12.2678 19.2086 12.2692 19.2125 12.2716C19.2175 12.275 19.2208 12.2801 19.222 12.2859C19.2231 12.2918 19.222 12.2978 19.2186 12.3027L19.0732 12.5152C19.0705 12.519 19.0669 12.5219 19.0626 12.5235L18.0437 12.9038L16.9383 13.2317L15.9471 13.7748L14.5345 14.4188C14.5315 14.4201 14.5284 14.4208 14.525 14.4208L14.5245 14.421Z" fill="#F3F4F7"/>
<path d="M15.8578 16.7047C15.8402 16.7047 15.8235 16.6944 15.8161 16.6772C15.8064 16.6543 15.8172 16.6282 15.8402 16.6186L16.8262 16.2085L18.1162 15.3849L19.2654 14.6206C19.2674 14.6193 19.2697 14.6182 19.272 14.617L20.3737 14.1202L21.2949 13.5176L21.4385 13.1779C21.4482 13.155 21.4746 13.1443 21.4976 13.1539C21.5206 13.1635 21.5315 13.1897 21.5218 13.2125L21.373 13.5648C21.3696 13.5731 21.3637 13.58 21.3563 13.585L20.4207 14.197C20.4187 14.1983 20.4166 14.1994 20.4146 14.2003L19.3128 14.6971L18.1661 15.4599L16.8718 16.2859C16.8695 16.2873 16.8673 16.2886 16.8648 16.2895L15.8752 16.7011C15.8696 16.7036 15.8635 16.7047 15.8578 16.7047Z" fill="#DDDEE1"/>
<path d="M15.835 16.66C15.826 16.66 15.8176 16.6546 15.8142 16.6463C15.8095 16.6349 15.8149 16.622 15.8264 16.617L16.8142 16.2061L18.106 15.3816L19.2557 14.6169C19.2557 14.6169 19.2577 14.6155 19.2588 14.6151L20.3622 14.1174L21.2905 13.5101L21.4368 13.164C21.4405 13.1558 21.4486 13.1504 21.4576 13.1504C21.4606 13.1504 21.4635 13.1511 21.4662 13.1522C21.4718 13.1544 21.4761 13.1589 21.4784 13.1643C21.4806 13.1699 21.4806 13.1759 21.4784 13.1815L21.3296 13.5338C21.3278 13.5378 21.3249 13.5414 21.3213 13.5439L20.3857 14.1559C20.3857 14.1559 20.3836 14.1572 20.3825 14.1576L19.2791 14.6551L18.1309 15.419L16.8367 16.2448C16.8367 16.2448 16.8345 16.2462 16.8334 16.2466L15.8438 16.6582C15.8411 16.6593 15.8381 16.66 15.835 16.66Z" fill="#F3F4F7"/>
<path d="M16.1389 19.6384C16.1247 19.6384 16.1109 19.6319 16.1021 19.6196C16.0877 19.5995 16.0924 19.5715 16.1127 19.5572L17.0458 18.9011L18.5073 17.9605L19.7587 17.1132L20.9885 16.3095L22.1056 15.6492L23.2031 14.9636L23.4158 14.61C23.4286 14.5887 23.4562 14.5818 23.4776 14.5945C23.4991 14.6073 23.5061 14.6346 23.4932 14.6558L23.2749 15.0186C23.2713 15.0247 23.2663 15.0298 23.2602 15.0336L22.1526 15.7257L21.0364 16.3856L19.8088 17.1877L18.5569 18.0352L17.096 18.9754L16.1644 19.6305C16.1565 19.6361 16.1473 19.6388 16.1382 19.6388L16.1389 19.6384Z" fill="#DDDEE1"/>
<path d="M16.1165 19.5935C16.1093 19.5935 16.1023 19.5899 16.098 19.5841C16.0944 19.5792 16.093 19.5733 16.0941 19.5673C16.095 19.5615 16.0984 19.5563 16.1034 19.5528L17.0365 18.8967L18.4973 17.9568L19.7492 17.109L20.9787 16.3055L22.0949 15.6457L23.1974 14.9567L23.413 14.5986C23.4171 14.5917 23.4243 14.5876 23.4324 14.5876C23.4365 14.5876 23.4403 14.5888 23.4439 14.5908C23.4545 14.597 23.4582 14.6109 23.4518 14.6214L23.2335 14.9842C23.2317 14.9871 23.2292 14.9898 23.2261 14.9918L22.1184 15.6839L21.0027 16.3433L19.7742 17.1461L18.5221 17.9939L17.0616 18.9336L16.1291 19.5892C16.1253 19.5919 16.1208 19.5932 16.116 19.5932L16.1165 19.5935Z" fill="#F3F4F7"/>
<path d="M17.1624 21.2823C17.1466 21.2823 17.1315 21.2743 17.1231 21.2597C17.1107 21.2382 17.1184 21.211 17.1401 21.1986L18.366 20.5077L19.5267 19.5441L20.6499 18.6193C20.6499 18.6193 20.6511 18.6185 20.6517 18.6178L21.6806 17.8573L22.7503 17.1128C22.7706 17.0987 22.7988 17.1034 22.8133 17.1238C22.8275 17.1439 22.8228 17.1719 22.8022 17.1862L21.7334 17.9297L20.7066 18.6887L19.5845 19.6125L18.4209 20.5786C18.4188 20.5804 18.4166 20.582 18.4141 20.5833L17.1848 21.2763C17.1778 21.2803 17.1701 21.2821 17.1624 21.2821V21.2823Z" fill="#DDDEE1"/>
<path d="M17.1399 21.2376C17.1317 21.2376 17.1243 21.2333 17.1202 21.2262C17.1173 21.221 17.1164 21.215 17.118 21.2092C17.1195 21.2034 17.1234 21.1987 17.1286 21.1958L18.3563 20.5039L19.5186 19.5392L20.6416 18.6147L21.6713 17.8535L22.7406 17.1095C22.7444 17.1068 22.7489 17.1055 22.7535 17.1055C22.7609 17.1055 22.7677 17.109 22.772 17.1151C22.7792 17.1252 22.7767 17.1392 22.7666 17.1462L21.6977 17.8897L20.6703 18.6491L19.5473 19.5736L18.3836 20.5397C18.3836 20.5397 18.3814 20.5413 18.3802 20.5419L17.1509 21.2349C17.1475 21.2369 17.1437 21.2378 17.1399 21.2378V21.2376Z" fill="#F3F4F7"/>
<path d="M19.2717 21.2037C19.2616 21.2037 19.2517 21.2004 19.2431 21.1937C19.2239 21.178 19.2209 21.1498 19.2368 21.1308L20.0421 20.1576L21.1784 18.8926C21.1949 18.8743 21.2235 18.8725 21.2421 18.8891C21.2608 18.9054 21.2624 18.9338 21.2457 18.9521L20.1105 20.2157L19.3065 21.1876C19.2975 21.1984 19.2846 21.204 19.2715 21.204L19.2717 21.2037Z" fill="#DDDEE1"/>
<path d="M19.2491 21.159C19.2454 21.159 19.24 21.1581 19.2348 21.1539C19.2301 21.1501 19.2274 21.1447 19.2267 21.1389C19.226 21.1329 19.2278 21.1271 19.2317 21.1226L20.037 20.1493L21.1726 18.8851C21.1769 18.8804 21.183 18.8777 21.1896 18.8777C21.1952 18.8777 21.2004 18.8797 21.2045 18.8833C21.209 18.8873 21.2117 18.8927 21.2119 18.8987C21.2124 18.9048 21.2103 18.9103 21.2063 18.9148L20.0711 20.1784L19.2664 21.151C19.2621 21.1561 19.2558 21.1593 19.2491 21.1593V21.159Z" fill="#F3F4F7"/>
<path style="mix-blend-mode:overlay" opacity="0.7" d="M14.5472 14.4654C14.53 14.4654 14.5137 14.4558 14.5061 14.4395C14.4957 14.4171 14.5056 14.3905 14.5282 14.3802L15.9377 13.7375L16.9295 13.194C16.9322 13.1924 16.9354 13.1913 16.9383 13.1902L18.0432 12.8627L19.0473 12.488L19.1845 12.2874C19.1985 12.267 19.2265 12.2617 19.2473 12.2755C19.2678 12.2894 19.2733 12.3171 19.2593 12.3377L19.1139 12.5502C19.1087 12.5578 19.1012 12.5636 19.0924 12.567L18.0735 12.9473C18.0735 12.9473 18.0715 12.9479 18.0706 12.9482L16.9688 13.2747L15.9797 13.8167C15.9797 13.8167 15.9777 13.8178 15.9768 13.8183L14.5657 14.4616C14.5596 14.4643 14.553 14.4656 14.5469 14.4656L14.5472 14.4654ZM15.874 16.7013L16.8636 16.2898C16.8661 16.2889 16.8683 16.2875 16.8706 16.2862L18.1647 15.4601L19.3114 14.6974L20.4132 14.2006C20.4152 14.1997 20.4175 14.1985 20.4193 14.1972L21.3549 13.5852C21.3623 13.5803 21.3682 13.5733 21.3716 13.5651L21.5204 13.2128C21.5301 13.19 21.5192 13.1638 21.4962 13.1542C21.4732 13.1445 21.4468 13.1553 21.4371 13.1781L21.2935 13.5179L20.3723 14.1205L19.2705 14.6173C19.2683 14.6184 19.266 14.6195 19.264 14.6209L18.1148 15.3852L16.8252 16.2086L15.8393 16.6186C15.8162 16.6282 15.8054 16.6544 15.8151 16.6772C15.8223 16.6944 15.839 16.7047 15.8569 16.7047C15.8627 16.7047 15.8686 16.7036 15.8743 16.7011L15.874 16.7013ZM16.1648 19.6298L17.0964 18.9746L18.5573 18.0345L19.8092 17.187L21.0368 16.3848L22.153 15.725L23.2606 15.0329C23.2667 15.0291 23.2717 15.0239 23.2753 15.0179L23.4936 14.6551C23.5065 14.6338 23.4993 14.6063 23.478 14.5938C23.4566 14.581 23.4288 14.5882 23.4162 14.6092L23.2035 14.9629L22.106 15.6485L20.9889 16.3088L19.7591 17.1125L18.5077 17.9598L17.0462 18.9004L16.1131 19.5564C16.0928 19.5708 16.0881 19.5987 16.1025 19.6189C16.1113 19.6312 16.1253 19.6376 16.1393 19.6376C16.1483 19.6376 16.1574 19.635 16.1655 19.6294L16.1648 19.6298ZM17.1844 21.2764L18.4137 20.5834C18.416 20.582 18.4183 20.5805 18.4205 20.5787L19.5841 19.6126L20.7062 18.6888L21.733 17.9298L22.8019 17.1863C22.8222 17.1722 22.8271 17.1442 22.8129 17.1239C22.7987 17.1038 22.7705 17.0988 22.7499 17.1129L21.6802 17.8573L20.6514 18.6179C20.6514 18.6179 20.65 18.6188 20.6496 18.6194L19.5263 19.5441L18.3657 20.5078L17.1397 21.1987C17.118 21.211 17.1104 21.2383 17.1228 21.2598C17.1311 21.2743 17.1463 21.2824 17.1621 21.2824C17.1697 21.2824 17.1772 21.2806 17.1844 21.2766V21.2764ZM19.3069 21.1876L20.1109 20.2156L21.2461 18.9521C21.2625 18.9335 21.261 18.9053 21.2424 18.889C21.2239 18.8726 21.1953 18.8742 21.1788 18.8926L20.0425 20.1575L19.2371 21.1307C19.2213 21.1497 19.224 21.1779 19.2435 21.1936C19.2518 21.2003 19.262 21.2037 19.2721 21.2037C19.2852 21.2037 19.2981 21.1981 19.3071 21.1873L19.3069 21.1876Z" fill="url(#paint11_linear_2066_6304)"/>
</g>
<defs>
<linearGradient id="paint0_linear_2066_6304" x1="16.5" y1="0" x2="16.5" y2="32" gradientUnits="userSpaceOnUse">
<stop stop-color="#1B9844"/>
<stop offset="1" stop-color="#59B100"/>
</linearGradient>
<linearGradient id="paint1_linear_2066_6304" x1="20.4219" y1="13.507" x2="22.2861" y2="17.3747" gradientUnits="userSpaceOnUse">
<stop stop-color="white"/>
<stop offset="1" stop-color="#DEF3E0"/>
</linearGradient>
<linearGradient id="paint2_linear_2066_6304" x1="21.4086" y1="13.2654" x2="21.4086" y2="17.6922" gradientUnits="userSpaceOnUse">
<stop stop-color="white"/>
<stop offset="1" stop-color="#D4EFD6"/>
</linearGradient>
<linearGradient id="paint3_linear_2066_6304" x1="23.5823" y1="13.8789" x2="17.6103" y2="19.6732" gradientUnits="userSpaceOnUse">
<stop stop-color="#EEEEEE"/>
<stop offset="1" stop-color="white"/>
</linearGradient>
<linearGradient id="paint4_linear_2066_6304" x1="24.6274" y1="10.942" x2="19.8326" y2="17.5682" gradientUnits="userSpaceOnUse">
<stop stop-color="#FAFAFA"/>
<stop offset="1" stop-color="white"/>
</linearGradient>
<linearGradient id="paint5_linear_2066_6304" x1="11.2532" y1="13.9387" x2="11.2532" y2="9.99998" gradientUnits="userSpaceOnUse">
<stop stop-color="white"/>
<stop offset="1" stop-color="#FAFAFA"/>
</linearGradient>
<linearGradient id="paint6_linear_2066_6304" x1="9.72402" y1="17.8669" x2="9.72402" y2="14.1106" gradientUnits="userSpaceOnUse">
<stop stop-color="white"/>
<stop offset="1" stop-color="#FAFAFA"/>
</linearGradient>
<linearGradient id="paint7_linear_2066_6304" x1="11.7077" y1="21.1108" x2="11.7077" y2="14.1544" gradientUnits="userSpaceOnUse">
<stop stop-color="white"/>
<stop offset="1" stop-color="#FAFAFA"/>
</linearGradient>
<linearGradient id="paint8_linear_2066_6304" x1="18.6435" y1="21.0809" x2="18.6435" y2="11.7644" gradientUnits="userSpaceOnUse">
<stop offset="0.15" stop-color="white"/>
<stop offset="0.22" stop-color="#FAFAFA"/>
<stop offset="0.3" stop-color="#EEEEEE"/>
<stop offset="0.38" stop-color="#D9D9D9"/>
<stop offset="0.46" stop-color="#BCBCBC"/>
<stop offset="0.54" stop-color="#969696"/>
<stop offset="0.62" stop-color="#686868"/>
<stop offset="0.71" stop-color="#333333"/>
<stop offset="0.77"/>
<stop offset="1" stop-color="#494949"/>
</linearGradient>
<linearGradient id="paint9_linear_2066_6304" x1="19.2695" y1="21.2599" x2="19.2695" y2="10.9145" gradientUnits="userSpaceOnUse">
<stop offset="0.15" stop-color="white"/>
<stop offset="0.22" stop-color="#FAFAFA"/>
<stop offset="0.3" stop-color="#EEEEEE"/>
<stop offset="0.38" stop-color="#D9D9D9"/>
<stop offset="0.46" stop-color="#BCBCBC"/>
<stop offset="0.54" stop-color="#969696"/>
<stop offset="0.62" stop-color="#686868"/>
<stop offset="0.71" stop-color="#333333"/>
<stop offset="0.77"/>
<stop offset="1" stop-color="#494949"/>
</linearGradient>
<linearGradient id="paint10_linear_2066_6304" x1="14.0929" y1="13.6051" x2="21.591" y2="18.9043" gradientUnits="userSpaceOnUse">
<stop offset="0.15" stop-color="white"/>
<stop offset="0.22" stop-color="#FAFAFA"/>
<stop offset="0.3" stop-color="#EEEEEE"/>
<stop offset="0.38" stop-color="#D9D9D9"/>
<stop offset="0.46" stop-color="#BCBCBC"/>
<stop offset="0.54" stop-color="#969696"/>
<stop offset="0.62" stop-color="#686868"/>
<stop offset="0.71" stop-color="#333333"/>
<stop offset="0.77"/>
<stop offset="1" stop-color="#494949"/>
</linearGradient>
<linearGradient id="paint11_linear_2066_6304" x1="15.6225" y1="13.292" x2="21.3953" y2="19.1187" gradientUnits="userSpaceOnUse">
<stop offset="0.15" stop-color="white"/>
<stop offset="0.22" stop-color="#FAFAFA"/>
<stop offset="0.3" stop-color="#EEEEEE"/>
<stop offset="0.38" stop-color="#D9D9D9"/>
<stop offset="0.46" stop-color="#BCBCBC"/>
<stop offset="0.54" stop-color="#969696"/>
<stop offset="0.62" stop-color="#686868"/>
<stop offset="0.71" stop-color="#333333"/>
<stop offset="0.77"/>
<stop offset="1" stop-color="#494949"/>
</linearGradient>
</defs>
</svg>
