<svg width="199" height="190" viewBox="0 0 199 190" fill="none" xmlns="http://www.w3.org/2000/svg">
<path d="M99.2303 180.828C146.656 180.828 185.103 142.382 185.103 94.9556C185.103 47.5297 146.656 9.08331 99.2303 9.08331C51.8043 9.08331 13.358 47.5297 13.358 94.9556C13.358 142.382 51.8043 180.828 99.2303 180.828Z" fill="#211C19"/>
<path d="M179.283 93.2444C179.295 93.8275 179.301 94.4137 179.301 95C179.301 139.222 143.452 175.071 99.2303 175.071C55.0087 175.071 19.1591 139.222 19.1591 95C19.1591 50.7784 55.0087 14.9288 99.2303 14.9288C143.452 14.9288 178.349 49.8334 179.283 93.2444Z" fill="#211C19"/>
<path d="M99.2302 176.598C88.2157 176.598 77.5293 174.441 67.4689 170.184C57.752 166.075 49.0258 160.191 41.5332 152.699C34.0405 145.206 28.1569 136.478 24.0473 126.763C19.7926 116.702 17.634 106.016 17.634 95.0015C17.634 83.9869 19.7911 73.3006 24.0473 63.2402C28.1569 53.5232 34.0405 44.7971 41.5332 37.3044C49.0258 29.8118 57.7535 23.9282 67.4689 19.8185C77.5293 15.5639 88.2157 13.4052 99.2302 13.4052C120.934 13.4052 141.295 21.6856 156.561 36.7228C163.971 44.02 169.836 52.5538 173.998 62.086C178.285 71.9037 180.576 82.3764 180.81 93.2153C180.822 93.8077 180.828 94.4092 180.828 95.003C180.828 106.018 178.671 116.704 174.415 126.764C170.305 136.481 164.421 145.207 156.929 152.7C149.436 160.193 140.708 166.076 130.993 170.186C120.933 174.442 110.246 176.599 99.2318 176.599L99.2302 176.598ZM99.2302 16.4554C88.6263 16.4554 78.34 18.5316 68.6581 22.6275C59.3061 26.583 50.9051 32.2467 43.6918 39.4615C36.4785 46.6763 30.8148 55.0758 26.8578 64.4279C22.7619 74.1097 20.6857 84.3961 20.6857 95C20.6857 105.604 22.7619 115.89 26.8578 125.572C30.8133 134.926 36.477 143.325 43.6918 150.538C50.9051 157.752 59.3061 163.415 68.6581 167.372C78.34 171.468 88.6263 173.545 99.2302 173.545C109.834 173.545 120.12 171.468 129.802 167.372C139.156 163.417 147.555 157.753 154.769 150.538C161.982 143.325 167.646 134.924 171.603 125.572C175.699 115.89 177.775 105.604 177.775 95C177.775 94.4259 177.769 93.8474 177.756 93.2764C177.311 72.5922 169.023 53.279 154.418 38.8936C139.725 24.4228 120.127 16.4539 99.2302 16.4539V16.4554Z" fill="#99B49A"/>
<path d="M175.18 67.9345H23.2809V70.9877H175.18V67.9345Z" fill="#99B49A"/>
<path d="M176.248 115.412H22.2123V118.466H176.248V115.412Z" fill="#99B49A"/>
<path d="M99.2302 134.417C84.0953 134.417 71.8274 122.149 71.8274 107.014V82.8939C71.8274 67.759 84.0953 55.4911 99.2302 55.4911C114.365 55.4911 126.633 67.759 126.633 82.8939V107.014C126.633 122.149 114.365 134.417 99.2302 134.417Z" fill="#211C19"/>
<path d="M99.2303 137.47C82.4375 137.47 68.7743 123.807 68.7743 107.014V82.8939C68.7743 66.101 82.4375 52.4378 99.2303 52.4378C116.023 52.4378 129.686 66.101 129.686 82.8939V107.014C129.686 123.807 116.023 137.47 99.2303 137.47ZM99.2303 58.5443C85.8037 58.5443 74.8807 69.4672 74.8807 82.8939V107.014C74.8807 120.441 85.8037 131.364 99.2303 131.364C112.657 131.364 123.58 120.441 123.58 107.014V82.8939C123.58 69.4672 112.657 58.5443 99.2303 58.5443Z" fill="#99B49A"/>
<path d="M99.2256 190C104.263 190 108.347 185.916 108.347 180.878C108.347 175.841 104.263 171.757 99.2256 171.757C94.188 171.757 90.1041 175.841 90.1041 180.878C90.1041 185.916 94.188 190 99.2256 190Z" fill="#211C19"/>
<path d="M99.1493 185.649C101.847 185.649 104.035 183.462 104.035 180.764C104.035 178.066 101.847 175.879 99.1493 175.879C96.4513 175.879 94.2642 178.066 94.2642 180.764C94.2642 183.462 96.4513 185.649 99.1493 185.649Z" fill="#211C19"/>
<path d="M99.1493 187.176C95.6137 187.176 92.7375 184.3 92.7375 180.764C92.7375 177.228 95.6137 174.352 99.1493 174.352C102.685 174.352 105.561 177.228 105.561 180.764C105.561 184.3 102.685 187.176 99.1493 187.176ZM99.1493 177.405C97.2975 177.405 95.7908 178.912 95.7908 180.764C95.7908 182.616 97.2975 184.123 99.1493 184.123C101.001 184.123 102.508 182.616 102.508 180.764C102.508 178.912 101.001 177.405 99.1493 177.405Z" fill="#99B49A"/>
<path d="M99.2303 18.2431C104.268 18.2431 108.352 14.1592 108.352 9.12155C108.352 4.08386 104.268 0 99.2303 0C94.1926 0 90.1088 4.08386 90.1088 9.12155C90.1088 14.1592 94.1926 18.2431 99.2303 18.2431Z" fill="#211C19"/>
<path d="M99.1539 13.8923C101.852 13.8923 104.039 11.7051 104.039 9.00713C104.039 6.30912 101.852 4.12195 99.1539 4.12195C96.4559 4.12195 94.2687 6.30912 94.2687 9.00713C94.2687 11.7051 96.4559 13.8923 99.1539 13.8923Z" fill="#211C19"/>
<path d="M99.154 15.4189C95.6184 15.4189 92.7422 12.5427 92.7422 9.00708C92.7422 5.47143 95.6184 2.59528 99.154 2.59528C102.69 2.59528 105.566 5.47143 105.566 9.00708C105.566 12.5427 102.69 15.4189 99.154 15.4189ZM99.154 5.64851C97.3022 5.64851 95.7954 7.15529 95.7954 9.00708C95.7954 10.8589 97.3022 12.3656 99.154 12.3656C101.006 12.3656 102.513 10.8589 102.513 9.00708C102.513 7.15529 101.006 5.64851 99.154 5.64851Z" fill="#99B49A"/>
<path d="M100.681 14.9609H97.6273V47.9359H100.681V14.9609Z" fill="#99B49A"/>
<path d="M117.435 29.737C122.473 29.737 126.557 25.6531 126.557 20.6154C126.557 15.5778 122.473 11.4939 117.435 11.4939C112.398 11.4939 108.314 15.5778 108.314 20.6154C108.314 25.6531 112.398 29.737 117.435 29.737Z" fill="#211C19"/>
<path d="M117.359 25.3862C120.057 25.3862 122.244 23.199 122.244 20.501C122.244 17.803 120.057 15.6158 117.359 15.6158C114.661 15.6158 112.474 17.803 112.474 20.501C112.474 23.199 114.661 25.3862 117.359 25.3862Z" fill="#211C19"/>
<path d="M117.359 26.9128C113.823 26.9128 110.947 24.0366 110.947 20.501C110.947 16.9653 113.823 14.0892 117.359 14.0892C120.895 14.0892 123.771 16.9653 123.771 20.501C123.771 24.0366 120.895 26.9128 117.359 26.9128ZM117.359 17.1424C115.507 17.1424 114 18.6492 114 20.501C114 22.3528 115.507 23.8595 117.359 23.8595C119.211 23.8595 120.718 22.3528 120.718 20.501C120.718 18.6492 119.211 17.1424 117.359 17.1424Z" fill="#99B49A"/>
<path d="M115.818 26.4447L115.78 53.8796L118.833 53.8838L118.871 26.449L115.818 26.4447Z" fill="#99B49A"/>
<path d="M109.84 27.4791H106.787V50.5311H109.84V27.4791Z" fill="#99B49A"/>
<path d="M80.9964 29.6989C86.034 29.6989 90.1179 25.615 90.1179 20.5773C90.1179 15.5396 86.034 11.4557 80.9964 11.4557C75.9587 11.4557 71.8748 15.5396 71.8748 20.5773C71.8748 25.615 75.9587 29.6989 80.9964 29.6989Z" fill="#211C19"/>
<path d="M81.0726 25.3481C83.7706 25.3481 85.9578 23.1609 85.9578 20.4629C85.9578 17.7649 83.7706 15.5777 81.0726 15.5777C78.3746 15.5777 76.1875 17.7649 76.1875 20.4629C76.1875 23.1609 78.3746 25.3481 81.0726 25.3481Z" fill="#211C19"/>
<path d="M81.0726 26.8746C77.5369 26.8746 74.6608 23.9985 74.6608 20.4628C74.6608 16.9272 77.5369 14.051 81.0726 14.051C84.6082 14.051 87.4844 16.9272 87.4844 20.4628C87.4844 23.9985 84.6082 26.8746 81.0726 26.8746ZM81.0726 17.1043C79.2208 17.1043 77.714 18.611 77.714 20.4628C77.714 22.3146 79.2208 23.8214 81.0726 23.8214C82.9244 23.8214 84.4312 22.3146 84.4312 20.4628C84.4312 18.611 82.9244 17.1043 81.0726 17.1043Z" fill="#99B49A"/>
<path d="M82.5947 26.4235L79.5415 26.4278L79.5798 53.8627L82.633 53.8584L82.5947 26.4235Z" fill="#99B49A"/>
<path d="M91.6461 27.441H88.5928V50.4929H91.6461V27.441Z" fill="#99B49A"/>
<path d="M90.7576 18.3195C92.8654 18.3195 94.5741 16.9867 94.5741 15.3426C94.5741 13.6985 92.8654 12.3657 90.7576 12.3657C88.6498 12.3657 86.941 13.6985 86.941 15.3426C86.941 16.9867 88.6498 18.3195 90.7576 18.3195Z" fill="#211C19"/>
<path d="M107.856 18.6248C109.963 18.6248 111.672 17.292 111.672 15.6479C111.672 14.0038 109.963 12.671 107.856 12.671C105.748 12.671 104.039 14.0038 104.039 15.6479C104.039 17.292 105.748 18.6248 107.856 18.6248Z" fill="#211C19"/>
<path d="M117.451 178.483C122.488 178.483 126.572 174.399 126.572 169.362C126.572 164.324 122.488 160.24 117.451 160.24C112.413 160.24 108.329 164.324 108.329 169.362C108.329 174.399 112.413 178.483 117.451 178.483Z" fill="#211C19"/>
<path d="M117.374 174.361C120.072 174.361 122.259 172.174 122.259 169.476C122.259 166.778 120.072 164.591 117.374 164.591C114.676 164.591 112.489 166.778 112.489 169.476C112.489 172.174 114.676 174.361 117.374 174.361Z" fill="#211C19"/>
<path d="M117.374 175.888C113.839 175.888 110.962 173.012 110.962 169.476C110.962 165.941 113.839 163.064 117.374 163.064C120.91 163.064 123.786 165.941 123.786 169.476C123.786 173.012 120.91 175.888 117.374 175.888ZM117.374 166.118C115.522 166.118 114.016 167.624 114.016 169.476C114.016 171.328 115.522 172.835 117.374 172.835C119.226 172.835 120.733 171.328 120.733 169.476C120.733 167.624 119.226 166.118 117.374 166.118Z" fill="#99B49A"/>
<path d="M118.851 136.095L115.798 136.1L115.836 163.535L118.889 163.53L118.851 136.095Z" fill="#99B49A"/>
<path d="M109.854 139.446H106.801V162.498H109.854V139.446Z" fill="#99B49A"/>
<path d="M81.0101 178.521C86.0478 178.521 90.1317 174.438 90.1317 169.4C90.1317 164.362 86.0478 160.278 81.0101 160.278C75.9724 160.278 71.8886 164.362 71.8886 169.4C71.8886 174.438 75.9724 178.521 81.0101 178.521Z" fill="#211C19"/>
<path d="M81.0864 174.399C83.7844 174.399 85.9716 172.212 85.9716 169.514C85.9716 166.816 83.7844 164.629 81.0864 164.629C78.3884 164.629 76.2012 166.816 76.2012 169.514C76.2012 172.212 78.3884 174.399 81.0864 174.399Z" fill="#211C19"/>
<path d="M81.0864 175.926C77.5507 175.926 74.6746 173.05 74.6746 169.514C74.6746 165.979 77.5507 163.103 81.0864 163.103C84.622 163.103 87.4982 165.979 87.4982 169.514C87.4982 173.05 84.622 175.926 81.0864 175.926ZM81.0864 166.156C79.2346 166.156 77.7278 167.663 77.7278 169.514C77.7278 171.366 79.2346 172.873 81.0864 172.873C82.9382 172.873 84.445 171.366 84.445 169.514C84.445 167.663 82.9382 166.156 81.0864 166.156Z" fill="#99B49A"/>
<path d="M79.5864 136.108L79.5481 163.543L82.6013 163.548L82.6396 136.113L79.5864 136.108Z" fill="#99B49A"/>
<path d="M91.6597 139.484H88.6065V162.536H91.6597V139.484Z" fill="#99B49A"/>
<path d="M90.7712 177.612C92.8791 177.612 94.5878 176.279 94.5878 174.635C94.5878 172.991 92.8791 171.658 90.7712 171.658C88.6634 171.658 86.9547 172.991 86.9547 174.635C86.9547 176.279 88.6634 177.612 90.7712 177.612Z" fill="#211C19"/>
<path d="M107.869 177.306C109.977 177.306 111.686 175.973 111.686 174.329C111.686 172.685 109.977 171.352 107.869 171.352C105.762 171.352 104.053 172.685 104.053 174.329C104.053 175.973 105.762 177.306 107.869 177.306Z" fill="#211C19"/>
<path d="M100.681 142.936H97.6273V175.911H100.681V142.936Z" fill="#99B49A"/>
<path d="M185.008 70.9558H13.4526C6.02292 70.9558 0 76.9787 0 84.4084V101.928C0 109.358 6.02292 115.38 13.4526 115.38H185.008C192.438 115.38 198.461 109.358 198.461 101.928V84.4084C198.461 76.9787 192.438 70.9558 185.008 70.9558Z" fill="#211C19"/>
<path d="M27.612 95.4183L28.4013 93.4306C28.5952 92.9635 28.9371 92.5437 29.4241 92.1727C29.9111 91.8033 30.4958 91.617 31.1782 91.617C31.8606 91.617 32.4453 91.8033 32.9323 92.1727C33.4193 92.5437 33.7506 92.962 33.9261 93.4306L34.7154 95.3893L39.1304 84.2786C39.2861 83.8893 39.5593 83.5381 39.9486 83.2252C40.3379 82.9138 40.8356 82.7581 41.4401 82.7581C41.8294 82.7581 42.1805 82.8313 42.4935 82.9779C42.8049 83.1244 43.0629 83.3046 43.269 83.5183C43.4736 83.7336 43.6293 83.9763 43.7362 84.2495C43.843 84.5228 43.8965 84.7854 43.8965 85.0388C43.8965 85.2922 43.8476 85.5655 43.7499 85.8571L37.4633 101.645C37.2679 102.114 36.9274 102.532 36.4405 102.903C35.9535 103.274 35.3688 103.459 34.6864 103.459C34.004 103.459 33.4193 103.274 32.9323 102.903C32.4453 102.534 32.114 102.114 31.9385 101.645L31.1492 99.7447L30.3889 101.645C30.1935 102.114 29.8577 102.532 29.3798 102.903C28.902 103.274 28.3219 103.459 27.6395 103.459C26.9571 103.459 26.3724 103.274 25.8854 102.903C25.3984 102.534 25.0565 102.114 24.8626 101.645L18.576 85.8571C18.4783 85.564 18.4294 85.2922 18.4294 85.0388C18.4294 84.7854 18.4828 84.5228 18.5897 84.2495C18.6966 83.9763 18.8523 83.7336 19.0568 83.5183C19.2614 83.3046 19.5194 83.1244 19.8324 82.9779C20.1438 82.8313 20.4949 82.7581 20.8842 82.7581C21.4887 82.7581 21.9849 82.9138 22.3757 83.2252C22.765 83.5366 23.0383 83.8877 23.194 84.2786L27.609 95.4183H27.612Z" fill="#EFE7D1"/>
<path d="M62.2311 100.389C62.3486 100.623 62.4067 100.896 62.4067 101.207C62.4067 101.461 62.3532 101.725 62.2464 101.996C62.1395 102.27 61.9777 102.514 61.7639 102.728C61.5502 102.941 61.2907 103.123 60.9884 103.268C60.6862 103.415 60.3305 103.488 59.9213 103.488C59.3168 103.488 58.8206 103.332 58.4298 103.019C58.039 102.708 57.7673 102.357 57.6115 101.967L56.004 97.8441C55.9063 97.6884 55.7888 97.6105 55.6529 97.6105H50.7112C50.6532 97.6105 50.5891 97.6304 50.5219 97.6685C50.4532 97.7082 50.3998 97.7662 50.3616 97.8441L48.7236 101.967C48.5678 102.357 48.2946 102.708 47.9053 103.019C47.5145 103.331 47.0183 103.488 46.4138 103.488C46.023 103.488 45.6734 103.415 45.3604 103.268C45.049 103.122 44.791 102.941 44.5849 102.728C44.3803 102.514 44.2246 102.27 44.1178 101.996C44.0109 101.723 43.9575 101.461 43.9575 101.207C43.9575 100.914 44.0063 100.642 44.104 100.389L50.3906 84.6007C50.5845 84.1137 50.9311 83.6893 51.4287 83.329C51.9264 82.9687 52.5157 82.7886 53.1981 82.7886C53.8805 82.7886 54.4652 82.9748 54.9522 83.3443C55.4392 83.7152 55.7704 84.1335 55.946 84.6022L62.2326 100.391H62.2311V100.389ZM52.7279 91.8658C52.592 92.2078 52.4546 92.5528 52.3188 92.904C52.3188 92.9436 52.2989 92.9818 52.2607 93.02H54.0148C54.0148 93.0001 53.995 92.9513 53.9568 92.8734C53.9171 92.7177 53.8591 92.5513 53.7812 92.3773C53.7034 92.2017 53.6255 92.017 53.5477 91.8216C53.4897 91.646 53.4256 91.4811 53.3584 91.3239C53.2897 91.1682 53.2271 91.0125 53.1691 90.8568C53.0134 91.188 52.8668 91.5239 52.7309 91.8658H52.7279Z" fill="#EFE7D1"/>
<path d="M71.1771 98.4883C71.1771 98.644 71.2259 98.757 71.3236 98.8241C71.4213 98.8928 71.4992 98.9264 71.5572 98.9264H77.3171C77.7263 98.9264 78.082 98.9997 78.3842 99.1462C78.6865 99.2928 78.9445 99.4729 79.1598 99.6867C79.3735 99.9019 79.5353 100.145 79.6422 100.418C79.749 100.691 79.8025 100.964 79.8025 101.236C79.8025 101.49 79.7536 101.752 79.6559 102.025C79.5582 102.299 79.4071 102.548 79.2025 102.77C78.998 102.995 78.74 103.18 78.427 103.326C78.1156 103.473 77.7553 103.546 77.3446 103.546H68.7482C68.3391 103.546 67.9834 103.473 67.6811 103.326C67.3788 103.18 67.1254 102.99 66.9209 102.757C66.7163 102.523 66.5606 102.27 66.4537 101.996C66.3469 101.723 66.2934 101.461 66.2934 101.207V85.1258C66.2934 84.8525 66.3469 84.5808 66.4537 84.3075C66.5606 84.0342 66.7209 83.7869 66.9361 83.5625C67.1499 83.3381 67.4079 83.1534 67.7117 83.0068C68.0139 82.8603 68.3696 82.787 68.7788 82.787C69.1879 82.787 69.5726 82.8648 69.8749 83.0206C70.1771 83.1763 70.426 83.3717 70.6199 83.6053C70.8137 83.8388 70.9557 84.0922 71.0443 84.3655C71.1328 84.6388 71.1756 84.8922 71.1756 85.1258V98.4883H71.1771Z" fill="#EFE7D1"/>
<path d="M89.1012 98.4883C89.1012 98.644 89.15 98.757 89.2477 98.8241C89.3455 98.8928 89.4233 98.9264 89.4813 98.9264H95.2413C95.6504 98.9264 96.0061 98.9997 96.3084 99.1462C96.6106 99.2928 96.8686 99.4729 97.0839 99.6867C97.2976 99.9019 97.4594 100.145 97.5663 100.418C97.6732 100.691 97.7266 100.964 97.7266 101.236C97.7266 101.49 97.6777 101.752 97.58 102.025C97.4823 102.299 97.3312 102.548 97.1266 102.77C96.9221 102.995 96.6641 103.18 96.3511 103.326C96.0397 103.473 95.6794 103.546 95.2687 103.546H86.6723C86.2632 103.546 85.9075 103.473 85.6052 103.326C85.303 103.18 85.0495 102.99 84.845 102.757C84.6404 102.523 84.4847 102.27 84.3778 101.996C84.271 101.723 84.2175 101.461 84.2175 101.207V85.1258C84.2175 84.8525 84.271 84.5808 84.3778 84.3075C84.4847 84.0342 84.645 83.7869 84.8602 83.5625C85.074 83.3381 85.332 83.1534 85.6358 83.0068C85.938 82.8603 86.2937 82.787 86.7029 82.787C87.112 82.787 87.4967 82.8648 87.799 83.0206C88.1013 83.1763 88.3501 83.3717 88.544 83.6053C88.7379 83.8388 88.8798 84.0922 88.9684 84.3655C89.0569 84.6388 89.0997 84.8922 89.0997 85.1258V98.4883H89.1012Z" fill="#EFE7D1"/>
<path d="M119.26 82.8451C119.669 82.8451 120.024 82.9184 120.327 83.0649C120.629 83.2115 120.887 83.3916 121.102 83.6053C121.316 83.8206 121.478 84.0633 121.585 84.3366C121.692 84.6099 121.745 84.8724 121.745 85.1259C121.745 85.3793 121.696 85.648 121.598 85.9304C121.501 86.2128 121.35 86.4616 121.145 86.6769C120.94 86.8922 120.682 87.0708 120.369 87.2173C120.058 87.3639 119.696 87.4372 119.287 87.4372H115.895C115.837 87.4372 115.759 87.4769 115.661 87.5547C115.564 87.6326 115.515 87.7501 115.515 87.9058V101.239C115.515 101.493 115.466 101.755 115.368 102.029C115.271 102.302 115.119 102.551 114.915 102.774C114.71 102.998 114.452 103.183 114.139 103.329C113.828 103.476 113.468 103.549 113.057 103.549C112.646 103.549 112.292 103.476 111.99 103.329C111.688 103.183 111.434 102.993 111.23 102.76C111.025 102.526 110.869 102.273 110.762 102C110.656 101.726 110.602 101.464 110.602 101.21V87.8784C110.602 87.7226 110.558 87.6051 110.471 87.5272C110.382 87.4494 110.3 87.4112 110.222 87.4112H106.83C106.439 87.4112 106.089 87.3486 105.776 87.2204C105.465 87.0937 105.201 86.9227 104.987 86.709C104.772 86.4952 104.607 86.2556 104.49 85.993C104.372 85.7304 104.314 85.4526 104.314 85.1595C104.314 84.906 104.367 84.6434 104.474 84.3702C104.581 84.0969 104.741 83.8481 104.957 83.6252C105.17 83.4008 105.428 83.2161 105.732 83.0695C106.034 82.9229 106.39 82.8497 106.799 82.8497H119.255L119.26 82.8451Z" fill="#EFE7D1"/>
<path d="M141.539 100.389C141.657 100.623 141.715 100.896 141.715 101.207C141.715 101.461 141.661 101.725 141.554 101.996C141.447 102.27 141.286 102.514 141.072 102.728C140.858 102.941 140.599 103.123 140.296 103.268C139.994 103.415 139.638 103.488 139.229 103.488C138.625 103.488 138.129 103.332 137.738 103.019C137.347 102.708 137.075 102.357 136.919 101.967L135.312 97.8441C135.214 97.6884 135.097 97.6105 134.961 97.6105H130.019C129.961 97.6105 129.897 97.6304 129.83 97.6685C129.761 97.7082 129.708 97.7662 129.67 97.8441L128.032 101.967C127.876 102.357 127.603 102.708 127.213 103.019C126.822 103.331 126.326 103.488 125.722 103.488C125.331 103.488 124.981 103.415 124.668 103.268C124.357 103.122 124.099 102.941 123.893 102.728C123.688 102.514 123.533 102.27 123.426 101.996C123.319 101.723 123.265 101.461 123.265 101.207C123.265 100.914 123.314 100.642 123.412 100.389L129.699 84.6007C129.892 84.1137 130.239 83.6893 130.737 83.329C131.234 82.9687 131.824 82.7886 132.506 82.7886C133.188 82.7886 133.773 82.9748 134.26 83.3443C134.747 83.7152 135.078 84.1335 135.254 84.6022L141.541 100.391L141.539 100.389ZM132.036 91.8658C131.9 92.2078 131.763 92.5528 131.627 92.904C131.627 92.9436 131.607 92.9818 131.569 93.02H133.323C133.323 93.0001 133.303 92.9513 133.265 92.8734C133.225 92.7177 133.167 92.5513 133.089 92.3773C133.011 92.2017 132.933 92.017 132.856 91.8216C132.798 91.646 132.734 91.4811 132.666 91.3239C132.598 91.1682 132.535 91.0125 132.477 90.8568C132.321 91.188 132.175 91.5239 132.039 91.8658H132.036Z" fill="#EFE7D1"/>
<path d="M150.485 98.4883C150.485 98.644 150.534 98.757 150.632 98.8241C150.729 98.8928 150.807 98.9264 150.865 98.9264H156.625C157.034 98.9264 157.39 98.9997 157.692 99.1462C157.994 99.2928 158.252 99.4729 158.468 99.6867C158.681 99.9019 158.843 100.145 158.95 100.418C159.057 100.691 159.11 100.964 159.11 101.236C159.11 101.49 159.062 101.752 158.964 102.025C158.866 102.299 158.715 102.548 158.51 102.77C158.306 102.995 158.048 103.18 157.735 103.326C157.423 103.473 157.063 103.546 156.653 103.546H148.056C147.647 103.546 147.291 103.473 146.989 103.326C146.687 103.18 146.433 102.99 146.229 102.757C146.024 102.523 145.869 102.27 145.762 101.996C145.655 101.723 145.601 101.461 145.601 101.207V85.1258C145.601 84.8525 145.655 84.5808 145.762 84.3075C145.869 84.0342 146.029 83.7869 146.244 83.5625C146.458 83.3381 146.716 83.1534 147.02 83.0068C147.322 82.8603 147.678 82.787 148.087 82.787C148.496 82.787 148.881 82.8648 149.183 83.0206C149.485 83.1763 149.734 83.3717 149.928 83.6053C150.122 83.8388 150.264 84.0922 150.352 84.3655C150.441 84.6388 150.483 84.8922 150.483 85.1258V98.4883H150.485Z" fill="#EFE7D1"/>
<path d="M168.496 88.869L174.374 83.4602C174.587 83.2465 174.836 83.0801 175.119 82.9626C175.401 82.845 175.728 82.787 176.099 82.787C176.508 82.787 176.863 82.8603 177.166 83.0068C177.468 83.1534 177.717 83.3427 177.911 83.5778C178.105 83.8114 178.251 84.0648 178.349 84.338C178.447 84.6113 178.495 84.8739 178.495 85.1273C178.495 85.4204 178.437 85.7166 178.32 86.0188C178.202 86.3211 178.008 86.5883 177.735 86.8234L171.478 92.6123L179.109 99.5996C179.616 100.068 179.869 100.613 179.869 101.238C179.869 101.491 179.816 101.76 179.709 102.042C179.602 102.325 179.446 102.578 179.242 102.802C179.037 103.027 178.779 103.212 178.466 103.358C178.155 103.505 177.795 103.578 177.384 103.578C177.013 103.578 176.686 103.515 176.404 103.387C176.122 103.26 175.873 103.1 175.659 102.905L168.437 96.267V101.238C168.437 101.491 168.388 101.754 168.29 102.027C168.192 102.3 168.041 102.549 167.837 102.772C167.632 102.996 167.374 103.181 167.061 103.328C166.75 103.474 166.389 103.547 165.979 103.547C165.568 103.547 165.214 103.474 164.912 103.328C164.609 103.181 164.356 102.992 164.151 102.758C163.947 102.525 163.791 102.271 163.684 101.998C163.577 101.725 163.524 101.462 163.524 101.209V85.1273C163.524 84.854 163.577 84.5823 163.684 84.309C163.791 84.0358 163.951 83.7884 164.167 83.564C164.38 83.3396 164.638 83.1549 164.942 83.0083C165.244 82.8618 165.6 82.7885 166.009 82.7885C166.418 82.7885 166.774 82.8618 167.076 83.0083C167.379 83.1549 167.637 83.335 167.852 83.5488C168.066 83.764 168.227 84.0068 168.334 84.28C168.441 84.5533 168.495 84.8266 168.495 85.0983V88.8706H168.496V88.869Z" fill="#EFE7D1"/>
<path d="M189.486 97.867C192.162 97.867 194.333 95.6969 194.333 93.02C194.333 90.3431 192.162 88.173 189.486 88.173C186.809 88.173 184.638 90.3431 184.638 93.02C184.638 95.6969 186.809 97.867 189.486 97.867Z" fill="#99B49A"/>
<path d="M8.51078 97.867C11.1877 97.867 13.3578 95.6969 13.3578 93.02C13.3578 90.3431 11.1877 88.173 8.51078 88.173C5.83385 88.173 3.66376 90.3431 3.66376 93.02C3.66376 95.6969 5.83385 97.867 8.51078 97.867Z" fill="#99B49A"/>
<path d="M139.321 39.5348C138.794 39.5852 137.968 39.7546 137.414 39.9317C132.822 41.3988 130.073 46.0138 130.99 50.7371C131.182 51.7325 131.662 52.9706 132.173 53.8041L132.33 54.059L131.572 55.8284C131.112 56.8986 130.813 57.6481 130.808 57.7275C130.804 58.1366 131.205 58.4466 131.595 58.3366C131.669 58.3137 132.495 57.9702 133.426 57.5703L135.126 56.8436L135.335 56.981C135.452 57.0558 135.811 57.2451 136.129 57.4023C140.336 59.4816 145.467 58.0863 148.09 54.1583C150.59 50.4104 150.096 45.4535 146.91 42.2644C144.904 40.2584 142.16 39.2722 139.321 39.5363V39.5348ZM137.641 44.0292C137.701 44.0612 138.043 44.3833 138.405 44.7482C139.124 45.4749 139.183 45.5695 139.101 45.8809C139.069 46.0031 138.964 46.1328 138.641 46.4626L138.22 46.8839L138.228 47.1114C138.243 47.6976 138.735 48.5113 139.612 49.4151C140.521 50.3463 141.452 50.9295 142.063 50.9447L142.29 50.9524L142.714 50.528C143.186 50.0563 143.308 49.9937 143.607 50.0715C143.737 50.1066 143.89 50.241 144.461 50.8074C145.055 51.4012 145.16 51.5264 145.2 51.676C145.297 52.0531 145.145 52.3294 144.441 53.0057C143.815 53.6072 143.458 53.7491 142.565 53.7415C141.968 53.7369 141.559 53.6514 140.953 53.395C139.109 52.6164 136.788 50.36 135.897 48.4762C135.345 47.316 135.263 46.1954 135.669 45.3619C135.842 45.0047 136.802 44.0597 137.077 43.9742C137.229 43.9269 137.501 43.9544 137.643 44.0292H137.641Z" fill="#99B49A"/>
<path d="M132.045 129.496C131.934 129.525 131.827 129.566 131.805 129.587C131.764 129.628 139.785 137.674 139.954 137.767C140.084 137.834 140.402 137.834 140.53 137.767C140.699 137.675 148.72 129.628 148.679 129.587C148.656 129.564 148.543 129.525 148.421 129.496C148.226 129.444 147.32 129.436 140.223 129.441C133.314 129.441 132.221 129.448 132.043 129.496H132.045Z" fill="#99B49A"/>
<path d="M130.874 130.589C130.811 130.773 130.807 131.044 130.807 136.083C130.807 141.122 130.81 141.392 130.874 141.574C130.911 141.681 130.955 141.77 130.966 141.77C130.981 141.77 132.272 140.489 133.834 138.927L136.677 136.084L133.834 133.242C132.272 131.676 130.979 130.399 130.966 130.399C130.955 130.399 130.911 130.488 130.874 130.592V130.589Z" fill="#99B49A"/>
<path d="M146.649 133.24L143.806 136.083L146.649 138.925C148.21 140.487 149.503 141.768 149.517 141.768C149.528 141.768 149.572 141.679 149.609 141.573C149.671 141.391 149.676 141.122 149.676 136.081C149.676 131.04 149.673 130.772 149.609 130.587C149.572 130.483 149.528 130.395 149.517 130.395C149.502 130.395 148.21 131.672 146.649 133.237V133.24Z" fill="#99B49A"/>
<path d="M134.593 139.721C132.765 141.548 131.782 142.557 131.805 142.579C131.828 142.6 131.941 142.641 132.063 142.67C132.259 142.722 133.167 142.73 140.243 142.73C147.319 142.73 148.225 142.722 148.422 142.67C148.545 142.641 148.659 142.6 148.68 142.579C148.702 142.557 147.72 141.548 145.885 139.713L143.053 136.881L142.174 137.748C141.369 138.545 141.269 138.631 141.003 138.764L140.707 138.907H139.776L139.479 138.764C139.214 138.631 139.11 138.542 138.316 137.756C137.84 137.283 137.441 136.895 137.429 136.895C137.422 136.895 136.144 138.165 134.59 139.719H134.593V139.721Z" fill="#99B49A"/>
<path d="M63.9713 39.5211C65.9269 39.8051 67.4627 41.4019 67.6917 43.3988C67.7238 43.6705 67.7314 44.8277 67.7238 47.1939C67.7085 50.5632 67.7085 50.6029 67.6215 50.9296C67.2719 52.244 66.4964 53.2164 65.3102 53.8072C64.8568 54.0362 64.2156 54.2408 63.9561 54.2408C63.9011 54.2408 63.8141 54.253 63.7637 54.2637L63.6767 54.2866V56.1964C63.6767 58.2039 63.6691 58.2833 63.4996 58.3489C63.2828 58.4314 63.295 58.4436 61.1975 56.346L59.1701 54.3187H56.1703C54.3796 54.3187 53.0133 54.3034 52.7766 54.279C51.163 54.1141 49.7371 53.0394 49.1555 51.5478C48.8441 50.7525 48.8563 50.9265 48.8563 46.8993C48.8563 42.8721 48.8517 43.1316 49.0608 42.4904C49.273 41.8294 49.6471 41.234 50.1631 40.7348C50.6791 40.2356 51.1981 39.912 51.8393 39.6952C52.4973 39.4753 52.398 39.4784 58.303 39.483C61.2906 39.4876 63.8416 39.5028 63.9713 39.5227V39.5211ZM61.173 45.9925C60.7486 46.1192 60.512 46.4459 60.5074 46.9023C60.5074 47.142 60.5227 47.2061 60.625 47.3741C60.6998 47.4916 60.8173 47.6107 60.9364 47.6855C61.1089 47.7924 61.1654 47.8031 61.4326 47.8031C61.6997 47.8031 61.7547 47.7908 61.9287 47.6855C62.0463 47.6107 62.1653 47.4931 62.2401 47.3741C62.3424 47.2046 62.3577 47.142 62.3577 46.9023C62.3531 46.5711 62.263 46.3634 62.0356 46.1741C61.8906 46.052 61.6142 45.9421 61.4494 45.9375C61.4066 45.9329 61.2799 45.9604 61.1746 45.9925H61.173ZM58.0236 45.9925C57.5992 46.1192 57.3626 46.4459 57.358 46.9023C57.358 47.142 57.3733 47.2061 57.4756 47.3741C57.5504 47.4916 57.6679 47.6107 57.787 47.6855C57.9595 47.7924 58.016 47.8031 58.2832 47.8031C58.5503 47.8031 58.6053 47.7908 58.7793 47.6855C58.8969 47.6107 59.0159 47.4931 59.0907 47.3741C59.193 47.2046 59.2083 47.142 59.2083 46.9023C59.2037 46.5711 59.1136 46.3634 58.8862 46.1741C58.7411 46.052 58.4648 45.9421 58.2999 45.9375C58.2572 45.9329 58.1305 45.9604 58.0252 45.9925H58.0236ZM54.8742 45.9925C54.7673 46.0245 54.607 46.11 54.5155 46.1848C54.0437 46.594 54.1017 47.3496 54.6376 47.684C54.8101 47.7908 54.8666 47.8015 55.1337 47.8015C55.4009 47.8015 55.4559 47.7893 55.6299 47.684C55.7474 47.6092 55.8665 47.4916 55.9413 47.3725C56.0436 47.2031 56.0589 47.1405 56.0589 46.9008C56.0543 46.5695 55.9642 46.3619 55.7367 46.1726C55.5917 46.0505 55.3154 45.9406 55.1505 45.936C55.1078 45.9314 54.9811 45.9589 54.8757 45.9909H54.8742V45.9925Z" fill="#99B49A"/>
<path d="M65.3073 128.789C65.1332 128.882 63.2341 129.87 61.0892 130.992C58.9443 132.111 55.3583 133.985 53.1187 135.152C50.8807 136.321 49.0137 137.313 48.9694 137.355C48.8671 137.448 48.7908 137.619 48.7908 137.755C48.7908 137.89 48.9068 138.113 49.0091 138.182C49.1282 138.261 53.6851 139.814 53.737 139.793C53.7614 139.782 54.4179 139.231 55.1949 138.568C55.972 137.901 58.1031 136.081 59.9259 134.524C61.7533 132.964 63.2814 131.657 63.3303 131.616L63.4127 131.544L63.3303 131.647C63.283 131.705 61.6067 133.726 59.6008 136.142C57.5963 138.554 55.9537 140.542 55.9476 140.553C55.9445 140.573 63.2891 143.102 63.6616 143.211C63.8356 143.258 64.1364 143.108 64.2325 142.927C64.3012 142.794 66.3194 129.192 66.2919 129.047C66.2645 128.9 66.121 128.725 65.9744 128.667C65.779 128.584 65.6462 128.609 65.3073 128.786V128.789Z" fill="#99B49A"/>
<path d="M55.1889 143.246C55.1889 145.165 55.1859 145.124 55.3798 145.278C55.6057 145.456 55.9095 145.438 56.1019 145.24C56.2392 145.093 58.1414 142.505 58.12 142.489C58.1063 142.475 55.2286 141.483 55.2012 141.483C55.195 141.483 55.1874 142.276 55.1874 143.244H55.1889V143.246Z" fill="#99B49A"/>
</svg>
